<svg version="1.1" id="Layer_1" xmlns="http://www.w3.org/2000/svg" xmlns:xlink="http://www.w3.org/1999/xlink" x="0px" y="0px"
	 width="100%" viewBox="0 0 3240 3240" enable-background="new 0 0 3240 3240" xml:space="preserve">
<path fill="#FFFFFF" opacity="1.000000" stroke="none" 
	d="
M2946.000000,3242.000000 
	C1964.000244,3242.000000 983.000610,3242.000000 2.000658,3242.000000 
	C2.000439,2162.000732 2.000439,1082.001221 2.000219,2.001382 
	C1081.999023,2.000922 2161.998047,2.000922 3241.997803,2.000461 
	C3241.998535,1081.998779 3241.998535,2161.997559 3241.999268,3241.998047 
	C3143.666748,3242.000000 3045.333252,3242.000000 2946.000000,3242.000000 
M1809.328857,1757.479248 
	C1790.968506,1723.340454 1772.608032,1689.201538 1754.129639,1654.843262 
	C1758.137817,1652.718994 1761.085693,1651.197144 1763.996582,1649.607544 
	C1786.733032,1637.190796 1800.380981,1618.040283 1806.111816,1592.951050 
	C1809.723267,1577.140259 1809.484863,1561.201538 1807.840210,1545.236206 
	C1803.811035,1506.124268 1780.812988,1478.781372 1743.056274,1467.559448 
	C1726.932373,1462.767090 1710.392944,1460.832764 1693.745850,1460.689209 
	C1651.424561,1460.324097 1609.098145,1460.554321 1566.773682,1460.598755 
	C1564.232544,1460.601440 1561.692017,1461.064941 1558.896484,1461.338989 
	C1558.896484,1567.876343 1558.896484,1673.737671 1558.896484,1780.133301 
	C1584.467773,1780.133301 1609.652466,1780.133301 1635.848022,1780.133301 
	C1635.848022,1741.923950 1635.848022,1704.131226 1635.848022,1666.152344 
	C1650.730713,1666.152344 1664.600952,1666.152344 1678.690430,1666.152344 
	C1698.102539,1704.355225 1717.374634,1742.282593 1736.517090,1779.954834 
	C1764.660522,1779.954834 1792.170166,1779.954834 1821.156128,1779.954834 
	C1817.045044,1772.164795 1813.519409,1765.484131 1809.328857,1757.479248 
M2066.384766,1496.298828 
	C2061.730713,1483.581909 2057.076660,1470.864990 2052.595215,1458.619995 
	C2026.347656,1458.619995 2001.420654,1458.619995 1976.664185,1458.619995 
	C1970.014526,1470.640015 1861.017334,1771.026855 1860.796265,1777.724121 
	C1886.623047,1777.724121 1912.447021,1777.724121 1938.448242,1777.724121 
	C1945.114014,1757.089600 1951.618408,1736.954834 1958.021484,1717.133789 
	C1995.473022,1717.133789 2031.680176,1717.133789 2068.525391,1717.133789 
	C2075.082275,1737.549316 2081.565186,1757.734985 2087.967529,1777.669312 
	C2115.381592,1777.669312 2142.119141,1777.669312 2169.674561,1777.669312 
	C2135.232666,1683.786499 2101.107666,1590.766602 2066.384766,1496.298828 
M2433.791016,1562.934937 
	C2420.947266,1528.071777 2408.103760,1493.208618 2395.441406,1458.837891 
	C2369.053467,1458.837891 2343.845703,1458.837891 2318.336670,1458.837891 
	C2279.461426,1565.228271 2240.718018,1671.257324 2201.745361,1777.914185 
	C2229.130859,1777.914185 2255.038330,1777.914185 2281.215576,1777.914185 
	C2287.810547,1757.438721 2294.307373,1737.268433 2300.730957,1717.324829 
	C2338.156982,1717.324829 2374.650879,1717.324829 2411.382324,1717.324829 
	C2418.037109,1737.974976 2424.522949,1758.100586 2430.870605,1777.797241 
	C2458.491455,1777.797241 2485.001709,1777.797241 2512.539062,1777.797241 
	C2486.236328,1706.131958 2460.232910,1635.281982 2433.791016,1562.934937 
M933.010437,1944.999756 
	C933.150146,1960.182251 932.694580,1975.386108 933.318726,1990.740479 
	C957.483337,1990.740479 980.326538,1990.740479 1003.746582,1990.740479 
	C1003.746582,1872.798584 1003.746582,1755.438599 1003.746582,1637.736084 
	C980.116211,1637.736084 957.024292,1637.736084 933.012024,1637.736084 
	C933.012024,1739.992798 933.012024,1841.496338 933.010437,1944.999756 
M1100.368530,1489.000000 
	C1100.368530,1410.852661 1100.368530,1332.705444 1100.368530,1253.966553 
	C1077.284302,1253.966553 1055.671387,1253.955322 1034.058594,1253.995605 
	C1032.805786,1253.997925 1031.553711,1254.419556 1030.443726,1254.620239 
	C1028.491211,1267.031860 1029.030640,1600.045654 1030.981201,1607.288086 
	C1053.779419,1607.288086 1076.609497,1607.288086 1100.368774,1607.288086 
	C1100.368774,1568.151733 1100.368774,1529.575928 1100.368530,1489.000000 
M1001.967407,1551.000000 
	C1001.967407,1481.444336 1001.967407,1411.888794 1001.967407,1342.004639 
	C977.721436,1342.004639 954.499939,1342.004639 930.991943,1342.004639 
	C930.991943,1430.625732 930.991943,1518.755005 930.991943,1607.294678 
	C954.718201,1607.294678 977.847717,1607.294678 1001.967407,1607.294678 
	C1001.967407,1588.824951 1001.967407,1570.912476 1001.967407,1551.000000 
M1031.661011,1841.000000 
	C1031.661011,1861.539307 1031.661011,1882.078491 1031.661011,1903.151855 
	C1055.633789,1903.151855 1078.416992,1903.151855 1101.825073,1903.151855 
	C1101.825073,1814.598511 1101.825073,1726.605835 1101.825073,1638.042358 
	C1078.421143,1638.042358 1055.647827,1638.042358 1031.660767,1638.042358 
	C1031.660767,1705.377319 1031.660767,1772.188721 1031.661011,1841.000000 
M1499.584473,1547.683838 
	C1496.483521,1547.061279 1493.388672,1545.938232 1490.280640,1545.900635 
	C1474.957886,1545.714478 1459.631592,1545.816040 1444.306641,1545.815918 
	C1439.063232,1545.815796 1433.819824,1545.815918 1428.753784,1545.815918 
	C1426.723755,1560.219604 1427.300293,1772.894043 1429.208496,1779.674316 
	C1452.454590,1779.674316 1475.657104,1779.674316 1499.811035,1779.674316 
	C1499.811035,1702.638794 1499.811035,1626.109009 1499.584473,1547.683838 
M832.272400,1590.865723 
	C832.344238,1596.373047 832.416016,1601.880371 832.485657,1607.220093 
	C852.315796,1608.897583 896.135803,1608.256470 903.200928,1606.329102 
	C903.200928,1547.890747 903.200928,1489.458374 903.200928,1430.733643 
	C879.454834,1430.733643 856.343201,1430.733643 833.499939,1430.733643 
	C832.976379,1431.920166 832.492859,1432.505127 832.491760,1433.090942 
	C832.394714,1485.026245 832.334839,1536.961426 832.272400,1590.865723 
M1129.745850,1792.962891 
	C1129.745850,1799.850220 1129.745850,1806.737671 1129.745850,1813.877441 
	C1153.896362,1813.877441 1176.706787,1813.877441 1199.396606,1813.877441 
	C1201.684448,1801.302856 1201.087891,1644.994385 1198.844482,1638.135376 
	C1182.819214,1636.453979 1137.490967,1637.106079 1129.745605,1639.331177 
	C1129.745605,1689.733521 1129.745605,1740.351807 1129.745850,1792.962891 
M1299.430664,1679.000244 
	C1299.430664,1665.413330 1299.430664,1651.826416 1299.430664,1638.459473 
	C1288.428345,1636.094482 1235.481812,1636.507324 1228.537354,1638.805054 
	C1226.703491,1658.928833 1227.485229,1718.084961 1229.714233,1725.194092 
	C1252.526978,1725.194092 1275.372437,1725.194092 1299.429932,1725.194092 
	C1299.429932,1710.117798 1299.429932,1695.558960 1299.430664,1679.000244 
M734.228149,1537.179932 
	C734.228149,1560.406738 734.228149,1583.633423 734.228149,1607.295898 
	C758.485474,1607.295898 781.607849,1607.295898 805.218994,1607.295898 
	C805.218994,1577.927124 805.218994,1549.132690 805.218994,1519.954346 
	C781.487183,1519.954346 758.269226,1519.954346 734.228271,1519.954346 
	C734.228271,1525.369995 734.228271,1530.309326 734.228149,1537.179932 
M1437.623901,1460.567139 
	C1434.652466,1460.567139 1431.681152,1460.567139 1428.253906,1460.567139 
	C1428.253906,1478.966431 1428.253906,1496.771606 1428.253906,1514.333862 
	C1452.356934,1514.333862 1475.851196,1514.333862 1499.829102,1514.333862 
	C1499.849487,1496.129028 1499.876465,1478.667236 1499.814575,1460.567017 
	C1478.719116,1460.567017 1459.108765,1460.567017 1437.623901,1460.567139 
z"/>
<path fill="#3B3B3B" opacity="1.000000" stroke="none" 
	d="
M1809.661377,1758.141357 
	C1813.519409,1765.484131 1817.045044,1772.164795 1821.156128,1779.954834 
	C1792.170166,1779.954834 1764.660522,1779.954834 1736.517090,1779.954834 
	C1717.374634,1742.282593 1698.102539,1704.355225 1678.690430,1666.152344 
	C1664.600952,1666.152344 1650.730713,1666.152344 1635.848022,1666.152344 
	C1635.848022,1704.131226 1635.848022,1741.923950 1635.848022,1780.133301 
	C1609.652466,1780.133301 1584.467773,1780.133301 1558.896484,1780.133301 
	C1558.896484,1673.737671 1558.896484,1567.876343 1558.896484,1461.338989 
	C1561.692017,1461.064941 1564.232544,1460.601440 1566.773682,1460.598755 
	C1609.098145,1460.554321 1651.424561,1460.324097 1693.745850,1460.689209 
	C1710.392944,1460.832764 1726.932373,1462.767090 1743.056274,1467.559448 
	C1780.812988,1478.781372 1803.811035,1506.124268 1807.840210,1545.236206 
	C1809.484863,1561.201538 1809.723267,1577.140259 1806.111816,1592.951050 
	C1800.380981,1618.040283 1786.733032,1637.190796 1763.996582,1649.607544 
	C1761.085693,1651.197144 1758.137817,1652.718994 1754.129639,1654.843262 
	C1772.608032,1689.201538 1790.968506,1723.340454 1809.661377,1758.141357 
M1635.672729,1580.971191 
	C1635.672729,1588.502686 1635.672729,1596.034058 1635.672729,1603.728516 
	C1656.556274,1603.728516 1676.143799,1603.769531 1695.730469,1603.673096 
	C1698.021484,1603.661865 1700.321777,1602.952026 1702.595703,1602.463135 
	C1720.255249,1598.666626 1729.722656,1589.263306 1731.393921,1571.456055 
	C1734.083862,1542.794189 1723.091064,1529.082642 1700.693115,1524.777710 
	C1697.450562,1524.154297 1694.075195,1524.037964 1690.758911,1524.014160 
	C1674.776367,1523.899902 1658.793213,1523.869995 1642.810181,1523.887817 
	C1640.602539,1523.890381 1638.395264,1524.326538 1635.672852,1524.616821 
	C1635.672852,1543.100464 1635.672852,1561.041260 1635.672729,1580.971191 
z"/>
<path fill="#3B3B3B" opacity="1.000000" stroke="none" 
	d="
M2066.683594,1497.022705 
	C2101.107666,1590.766602 2135.232666,1683.786499 2169.674561,1777.669312 
	C2142.119141,1777.669312 2115.381592,1777.669312 2087.967529,1777.669312 
	C2081.565186,1757.734985 2075.082275,1737.549316 2068.525391,1717.133789 
	C2031.680176,1717.133789 1995.473022,1717.133789 1958.021484,1717.133789 
	C1951.618408,1736.954834 1945.114014,1757.089600 1938.448242,1777.724121 
	C1912.447021,1777.724121 1886.623047,1777.724121 1860.796265,1777.724121 
	C1861.017334,1771.026855 1970.014526,1470.640015 1976.664185,1458.619995 
	C2001.420654,1458.619995 2026.347656,1458.619995 2052.595215,1458.619995 
	C2057.076660,1470.864990 2061.730713,1483.581909 2066.683594,1497.022705 
M1983.702026,1656.314087 
	C2005.137329,1656.314087 2026.572632,1656.314087 2049.249756,1656.314087 
	C2037.093018,1618.350220 2025.467285,1582.044434 2013.410645,1544.393066 
	C2012.158325,1547.468872 2011.434204,1548.952393 2010.938354,1550.508545 
	C2000.439697,1583.450562 1989.964233,1616.400024 1979.497681,1649.352173 
	C1978.999023,1650.922363 1978.072998,1652.651855 1978.385010,1654.080200 
	C1978.592529,1655.029907 1980.650757,1655.575317 1983.702026,1656.314087 
z"/>
<path fill="#3B3B3B" opacity="1.000000" stroke="none" 
	d="
M2434.010254,1563.683472 
	C2460.232910,1635.281982 2486.236328,1706.131958 2512.539062,1777.797241 
	C2485.001709,1777.797241 2458.491455,1777.797241 2430.870605,1777.797241 
	C2424.522949,1758.100586 2418.037109,1737.974976 2411.382324,1717.324829 
	C2374.650879,1717.324829 2338.156982,1717.324829 2300.730957,1717.324829 
	C2294.307373,1737.268433 2287.810547,1757.438721 2281.215576,1777.914185 
	C2255.038330,1777.914185 2229.130859,1777.914185 2201.745361,1777.914185 
	C2240.718018,1671.257324 2279.461426,1565.228271 2318.336670,1458.837891 
	C2343.845703,1458.837891 2369.053467,1458.837891 2395.441406,1458.837891 
	C2408.103760,1493.208618 2420.947266,1528.071777 2434.010254,1563.683472 
M2374.674561,1602.140015 
	C2368.772461,1583.674927 2362.870361,1565.209839 2356.968506,1546.744751 
	C2356.301025,1546.765625 2355.633789,1546.786499 2354.966309,1546.807495 
	C2343.430420,1582.971680 2331.894531,1619.135986 2320.255859,1655.623047 
	C2344.433105,1655.623047 2367.786133,1655.623047 2391.772949,1655.623047 
	C2386.107178,1637.741089 2380.698975,1620.672119 2374.674561,1602.140015 
z"/>
<path fill="#86C144" opacity="1.000000" stroke="none" 
	d="
M933.011230,1943.999756 
	C933.012024,1841.496338 933.012024,1739.992798 933.012024,1637.736084 
	C957.024292,1637.736084 980.116211,1637.736084 1003.746582,1637.736084 
	C1003.746582,1755.438599 1003.746582,1872.798584 1003.746582,1990.740479 
	C980.326538,1990.740479 957.483337,1990.740479 933.318726,1990.740479 
	C932.694580,1975.386108 933.150146,1960.182251 933.011230,1943.999756 
z"/>
<path fill="#1D5C9C" opacity="1.000000" stroke="none" 
	d="
M1100.368652,1490.000000 
	C1100.368774,1529.575928 1100.368774,1568.151733 1100.368774,1607.288086 
	C1076.609497,1607.288086 1053.779419,1607.288086 1030.981201,1607.288086 
	C1029.030640,1600.045654 1028.491211,1267.031860 1030.443726,1254.620239 
	C1031.553711,1254.419556 1032.805786,1253.997925 1034.058594,1253.995605 
	C1055.671387,1253.955322 1077.284302,1253.966553 1100.368530,1253.966553 
	C1100.368530,1332.705444 1100.368530,1410.852661 1100.368652,1490.000000 
z"/>
<path fill="#205E9D" opacity="1.000000" stroke="none" 
	d="
M1001.967407,1552.000000 
	C1001.967407,1570.912476 1001.967407,1588.824951 1001.967407,1607.294678 
	C977.847717,1607.294678 954.718201,1607.294678 930.991943,1607.294678 
	C930.991943,1518.755005 930.991943,1430.625732 930.991943,1342.004639 
	C954.499939,1342.004639 977.721436,1342.004639 1001.967407,1342.004639 
	C1001.967407,1411.888794 1001.967407,1481.444336 1001.967407,1552.000000 
z"/>
<path fill="#86C144" opacity="1.000000" stroke="none" 
	d="
M1031.660889,1840.000000 
	C1031.660767,1772.188721 1031.660767,1705.377319 1031.660767,1638.042358 
	C1055.647827,1638.042358 1078.421143,1638.042358 1101.825073,1638.042358 
	C1101.825073,1726.605835 1101.825073,1814.598511 1101.825073,1903.151855 
	C1078.416992,1903.151855 1055.633789,1903.151855 1031.661011,1903.151855 
	C1031.661011,1882.078491 1031.661011,1861.539307 1031.660889,1840.000000 
z"/>
<path fill="#3B3B3B" opacity="1.000000" stroke="none" 
	d="
M1499.697754,1548.631592 
	C1499.811035,1626.109009 1499.811035,1702.638794 1499.811035,1779.674316 
	C1475.657104,1779.674316 1452.454590,1779.674316 1429.208496,1779.674316 
	C1427.300293,1772.894043 1426.723755,1560.219604 1428.753784,1545.815918 
	C1433.819824,1545.815918 1439.063232,1545.815796 1444.306641,1545.815918 
	C1459.631592,1545.816040 1474.957886,1545.714478 1490.280640,1545.900635 
	C1493.388672,1545.938232 1496.483521,1547.061279 1499.697754,1548.631592 
z"/>
<path fill="#205E9D" opacity="1.000000" stroke="none" 
	d="
M832.272400,1589.881226 
	C832.334839,1536.961426 832.394714,1485.026245 832.491760,1433.090942 
	C832.492859,1432.505127 832.976379,1431.920166 833.499939,1430.733643 
	C856.343201,1430.733643 879.454834,1430.733643 903.200928,1430.733643 
	C903.200928,1489.458374 903.200928,1547.890747 903.200928,1606.329102 
	C896.135803,1608.256470 852.315796,1608.897583 832.485657,1607.220093 
	C832.416016,1601.880371 832.344238,1596.373047 832.272400,1589.881226 
z"/>
<path fill="#86C144" opacity="1.000000" stroke="none" 
	d="
M1129.745728,1791.966431 
	C1129.745605,1740.351807 1129.745605,1689.733521 1129.745605,1639.331177 
	C1137.490967,1637.106079 1182.819214,1636.453979 1198.844482,1638.135376 
	C1201.087891,1644.994385 1201.684448,1801.302856 1199.396606,1813.877441 
	C1176.706787,1813.877441 1153.896362,1813.877441 1129.745850,1813.877441 
	C1129.745850,1806.737671 1129.745850,1799.850220 1129.745728,1791.966431 
z"/>
<path fill="#86C144" opacity="1.000000" stroke="none" 
	d="
M1299.430298,1680.000122 
	C1299.429932,1695.558960 1299.429932,1710.117798 1299.429932,1725.194092 
	C1275.372437,1725.194092 1252.526978,1725.194092 1229.714233,1725.194092 
	C1227.485229,1718.084961 1226.703491,1658.928833 1228.537354,1638.805054 
	C1235.481812,1636.507324 1288.428345,1636.094482 1299.430664,1638.459473 
	C1299.430664,1651.826416 1299.430664,1665.413330 1299.430298,1680.000122 
z"/>
<path fill="#205E9D" opacity="1.000000" stroke="none" 
	d="
M734.228210,1536.214355 
	C734.228271,1530.309326 734.228271,1525.369995 734.228271,1519.954346 
	C758.269226,1519.954346 781.487183,1519.954346 805.218994,1519.954346 
	C805.218994,1549.132690 805.218994,1577.927124 805.218994,1607.295898 
	C781.607849,1607.295898 758.485474,1607.295898 734.228149,1607.295898 
	C734.228149,1583.633423 734.228149,1560.406738 734.228210,1536.214355 
z"/>
<path fill="#3B3B3B" opacity="1.000000" stroke="none" 
	d="
M1438.561035,1460.567139 
	C1459.108765,1460.567017 1478.719116,1460.567017 1499.814575,1460.567017 
	C1499.876465,1478.667236 1499.849487,1496.129028 1499.829102,1514.333862 
	C1475.851196,1514.333862 1452.356934,1514.333862 1428.253906,1514.333862 
	C1428.253906,1496.771606 1428.253906,1478.966431 1428.253906,1460.567139 
	C1431.681152,1460.567139 1434.652466,1460.567139 1438.561035,1460.567139 
z"/>
<path fill="#FFFFFF" opacity="1.000000" stroke="none" 
	d="
M1635.672852,1579.976562 
	C1635.672852,1561.041260 1635.672852,1543.100464 1635.672852,1524.616821 
	C1638.395264,1524.326538 1640.602539,1523.890381 1642.810181,1523.887817 
	C1658.793213,1523.869995 1674.776367,1523.899902 1690.758911,1524.014160 
	C1694.075195,1524.037964 1697.450562,1524.154297 1700.693115,1524.777710 
	C1723.091064,1529.082642 1734.083862,1542.794189 1731.393921,1571.456055 
	C1729.722656,1589.263306 1720.255249,1598.666626 1702.595703,1602.463135 
	C1700.321777,1602.952026 1698.021484,1603.661865 1695.730469,1603.673096 
	C1676.143799,1603.769531 1656.556274,1603.728516 1635.672729,1603.728516 
	C1635.672729,1596.034058 1635.672729,1588.502686 1635.672852,1579.976562 
z"/>
<path fill="#FFFFFF" opacity="1.000000" stroke="none" 
	d="
M1982.791260,1656.307861 
	C1980.650757,1655.575317 1978.592529,1655.029907 1978.385010,1654.080200 
	C1978.072998,1652.651855 1978.999023,1650.922363 1979.497681,1649.352173 
	C1989.964233,1616.400024 2000.439697,1583.450562 2010.938354,1550.508545 
	C2011.434204,1548.952393 2012.158325,1547.468872 2013.410645,1544.393066 
	C2025.467285,1582.044434 2037.093018,1618.350220 2049.249756,1656.314087 
	C2026.572632,1656.314087 2005.137329,1656.314087 1982.791260,1656.307861 
z"/>
<path fill="#FFFFFF" opacity="1.000000" stroke="none" 
	d="
M2374.982666,1602.871582 
	C2380.698975,1620.672119 2386.107178,1637.741089 2391.772949,1655.623047 
	C2367.786133,1655.623047 2344.433105,1655.623047 2320.255859,1655.623047 
	C2331.894531,1619.135986 2343.430420,1582.971680 2354.966309,1546.807495 
	C2355.633789,1546.786499 2356.301025,1546.765625 2356.968506,1546.744751 
	C2362.870361,1565.209839 2368.772461,1583.674927 2374.982666,1602.871582 
z"/>
</svg>