<?xml version="1.0" encoding="utf-8"?>
<!-- Generator: Adobe Illustrator 26.4.1, SVG Export Plug-In . SVG Version: 6.00 Build 0)  -->
<svg version="1.1" id="Layer_1" xmlns="http://www.w3.org/2000/svg" xmlns:xlink="http://www.w3.org/1999/xlink" x="0px" y="0px"
	 viewBox="0 0 838 352" style="enable-background:new 0 0 838 352;" xml:space="preserve">
<style type="text/css">
	.st0{clip-path:url(#SVGID_00000121258502155390514470000014810535002464802993_);fill:#0071CE;}
	
		.st1{clip-path:url(#SVGID_00000133509093823938986850000016770701031271034036_);fill:url(#SVGID_00000161598288039584032990000002638490245341133757_);}
	.st2{clip-path:url(#SVGID_00000086667285107431700490000010342408386038383538_);fill:#FFFFFF;}
	.st3{clip-path:url(#SVGID_00000086667285107431700490000010342408386038383538_);fill:#0071CE;}
	.st4{clip-path:url(#SVGID_00000086667285107431700490000010342408386038383538_);}
	.st5{clip-path:url(#SVGID_00000026150220796397930300000001641923273887059116_);fill:#308CD7;}
	.st6{clip-path:url(#SVGID_00000181805687126370493840000008018235731131237004_);fill:#F13178;}
	.st7{clip-path:url(#SVGID_00000021113666620907874410000005155790201171445907_);fill:#F15A29;}
	.st8{clip-path:url(#SVGID_00000087378840884718596090000003703196316070638242_);fill:#FF8C20;}
	.st9{clip-path:url(#SVGID_00000143582636334179476790000007849097034858745277_);fill:#FFC220;}
	.st10{clip-path:url(#SVGID_00000123403507954370370880000012067668400369543581_);fill:#A3D53C;}
	.st11{clip-path:url(#SVGID_00000019656546778470919480000003776211180449314701_);fill:#95AC41;}
</style>
<g>
	<defs>
		<rect id="SVGID_1_" x="43.2" y="44" width="759.8" height="270.2"/>
	</defs>
	<clipPath id="SVGID_00000067928834731727207560000001428930136722324407_">
		<use xlink:href="#SVGID_1_"  style="overflow:visible;"/>
	</clipPath>
	<path style="clip-path:url(#SVGID_00000067928834731727207560000001428930136722324407_);fill:#0071CE;" d="M760.6,211.7l9.6-21.5
		h0.3l9.8,21.5H760.6z M739.7,235.1h8.5c1.6,0,2.4-1,2.8-2l4.8-10.5H785l4.8,10.5c0.7,1.4,1.4,2,2.8,2h8.5c1.5,0,2.2-1.3,1.7-2.5
		l-30.1-65.7c-0.3-0.6-0.7-1.1-1.7-1.1h-1c-0.9,0-1.4,0.5-1.7,1.1l-30.4,65.7C737.5,233.8,738.3,235.1,739.7,235.1 M695.3,233.2
		c0,1,0.9,1.9,1.9,1.9h9.1c1,0,1.9-0.9,1.9-1.9v-64.6c0-1-0.9-1.9-1.9-1.9h-9.1c-1,0-1.9,0.9-1.9,1.9V233.2z M584.8,232.8
		c-0.2,1.4,0.6,2.2,1.9,2.2h8.8c0.9,0,1.7-0.8,1.8-1.5l5.7-37h0.3l17.3,38.4c0.3,0.6,0.8,1.1,1.7,1.1h1.8c0.9,0,1.5-0.5,1.7-1.1
		l17.1-38.4h0.3l5.8,37c0.2,0.7,1,1.5,1.9,1.5h8.9c1.3,0,2.1-0.9,1.8-2.2l-11.5-65.6c-0.1-0.8-0.7-1.5-1.8-1.5h-1.6
		c-0.9,0-1.4,0.4-1.7,1l-21.5,46.1h-0.3l-21.5-46.1c-0.3-0.6-0.9-1-1.7-1h-1.6c-1.1,0-1.7,0.7-1.8,1.5L584.8,232.8z"/>
</g>
<g>
	<defs>
		<path id="SVGID_00000175295187108594155110000012941417083114257030_" d="M372.3,44c-4.1,0-8.1,0.3-12,0.7v269.5h41.2
			c3.3-8.3,7-16.4,11-24.5c5.5-11.2,10.8-14.2,23-11.9c10,2,20.1,3.5,30.3,4.6c7.1,0.8,13.2-0.9,17.4-6.6c4.5-6,5-12.4,1.1-19.2
			c-3.2-5.5-2.2-9.4,3.5-11.9c4.6-2,5.2-5.4,3-8.6c-2.5-3.6-0.8-4.7,1.8-6.6c3.3-2.4,5.4-5.5,2.8-9.7c-5.4-8.7-5.4-8.7,4-13.4
			c0.5-0.2,1-0.5,1.5-0.7c9.1-4.5,9.7-9.2,2.6-16.5c-6.7-6.9-13-14.1-19.7-20.9c-4.6-4.7-5.6-9.7-3-15.7c2.3-5.4,2.3-11.2,1.6-17
			c-1.7-12.8-5.5-24.8-11.6-36C453.4,66.8,415.9,44,372.3,44z"/>
	</defs>
	<clipPath id="SVGID_00000131334748092020184140000002402395998319088768_">
		<use xlink:href="#SVGID_00000175295187108594155110000012941417083114257030_"  style="overflow:visible;"/>
	</clipPath>
	
		<linearGradient id="SVGID_00000108272620494950834010000003529435947874877077_" gradientUnits="userSpaceOnUse" x1="-243.6652" y1="574.1583" x2="-238.5651" y2="574.1583" gradientTransform="matrix(29.0214 0 0 -29.0214 7431.8081 16842.0254)">
		<stop  offset="0" style="stop-color:#6BC0DB"/>
		<stop  offset="6.027470e-02" style="stop-color:#6BC0DB"/>
		<stop  offset="1" style="stop-color:#C3E9FB"/>
	</linearGradient>
	
		<rect x="360.3" y="44" style="clip-path:url(#SVGID_00000131334748092020184140000002402395998319088768_);fill:url(#SVGID_00000108272620494950834010000003529435947874877077_);" width="150.3" height="270.2"/>
</g>
<g>
	<defs>
		<rect id="SVGID_00000101089138417331968790000012568179213870216840_" x="43.2" y="44" width="759.8" height="270.2"/>
	</defs>
	<clipPath id="SVGID_00000039091943082311046890000004301556803290343345_">
		<use xlink:href="#SVGID_00000101089138417331968790000012568179213870216840_"  style="overflow:visible;"/>
	</clipPath>
	<path style="clip-path:url(#SVGID_00000039091943082311046890000004301556803290343345_);fill:#FFFFFF;" d="M360.2,314.1
		c13,0,23.6-60.5,23.6-135c0-74.6-10.6-135-23.6-135c-13,0-23.6,60.5-23.6,135C336.5,253.7,347.1,314.1,360.2,314.1"/>
	<path style="clip-path:url(#SVGID_00000039091943082311046890000004301556803290343345_);fill:#FFFFFF;" d="M335.2,314.1
		c12.2,0,22.1-60.4,22.1-135c0-74.5-9.9-135-22.1-135s-22.1,60.4-22.1,135C313.1,253.7,323,314.1,335.2,314.1"/>
	<path style="clip-path:url(#SVGID_00000039091943082311046890000004301556803290343345_);fill:#FFFFFF;" d="M311.7,312.5
		c9.1,0,16.5-59.3,16.5-132.6s-7.4-132.6-16.5-132.6c-9.1,0-16.5,59.3-16.5,132.6S302.6,312.5,311.7,312.5"/>
	<path style="clip-path:url(#SVGID_00000039091943082311046890000004301556803290343345_);fill:#FFFFFF;" d="M287.3,304.1
		c9.1,0,16.5-55.6,16.5-124.2c0-68.6-7.4-124.2-16.5-124.2c-9.1,0-16.5,55.6-16.5,124.2C270.8,248.5,278.2,304.1,287.3,304.1"/>
	<path style="clip-path:url(#SVGID_00000039091943082311046890000004301556803290343345_);fill:#FFFFFF;" d="M266.8,296.5
		c6.4,0,11.6-52.2,11.6-116.6c0-64.4-5.2-116.6-11.6-116.6s-11.6,52.2-11.6,116.6C255.2,244.3,260.4,296.5,266.8,296.5"/>
	<path style="clip-path:url(#SVGID_00000039091943082311046890000004301556803290343345_);fill:#FFFFFF;" d="M230.1,283.4
		c6.4,0,11.6-46.6,11.6-104.1s-5.2-104.1-11.6-104.1c-6.4,0-11.6,46.6-11.6,104.1S223.7,283.4,230.1,283.4"/>
	<path style="clip-path:url(#SVGID_00000039091943082311046890000004301556803290343345_);fill:#FFFFFF;" d="M157.3,264.4
		c6.4,0,11.6-37.7,11.6-84.2s-5.2-84.2-11.6-84.2c-6.4,0-11.6,37.7-11.6,84.2S150.9,264.4,157.3,264.4"/>
	<path style="clip-path:url(#SVGID_00000039091943082311046890000004301556803290343345_);fill:#FFFFFF;" d="M52.9,247.4
		c5.4,0,9.7-30.1,9.7-67.1c0-37.1-4.3-67.1-9.7-67.1s-9.7,30.1-9.7,67.1C43.2,217.3,47.6,247.4,52.9,247.4"/>
	<path style="clip-path:url(#SVGID_00000039091943082311046890000004301556803290343345_);fill:#0071CE;" d="M360.2,314.1
		c13,0,23.6-60.5,23.6-135c0-74.6-10.6-135-23.6-135c-13,0-23.6,60.5-23.6,135C336.5,253.7,347.1,314.1,360.2,314.1"/>
	<g style="clip-path:url(#SVGID_00000039091943082311046890000004301556803290343345_);">
		<g>
			<defs>
				<rect id="SVGID_00000090264731728698319260000003647243724565197466_" x="267.2" y="8.5" width="135.9" height="310.7"/>
			</defs>
			<clipPath id="SVGID_00000024705568483977743910000010180881100208947123_">
				<use xlink:href="#SVGID_00000090264731728698319260000003647243724565197466_"  style="overflow:visible;"/>
			</clipPath>
			<path style="clip-path:url(#SVGID_00000024705568483977743910000010180881100208947123_);fill:#308CD7;" d="M335.2,314.1
				c12.2,0,22.1-60.4,22.1-135c0-74.5-9.9-135-22.1-135s-22.1,60.4-22.1,135C313.1,253.7,323,314.1,335.2,314.1"/>
		</g>
	</g>
	<g style="clip-path:url(#SVGID_00000039091943082311046890000004301556803290343345_);">
		<g>
			<defs>
				<rect id="SVGID_00000065041281547188669430000017484280071566813329_" x="249.3" y="11.7" width="124.8" height="305.9"/>
			</defs>
			<clipPath id="SVGID_00000049930726986575678590000013703709594358686606_">
				<use xlink:href="#SVGID_00000065041281547188669430000017484280071566813329_"  style="overflow:visible;"/>
			</clipPath>
			<path style="clip-path:url(#SVGID_00000049930726986575678590000013703709594358686606_);fill:#F13178;" d="M311.7,312.5
				c9.1,0,16.5-59.3,16.5-132.6s-7.4-132.6-16.5-132.6c-9.1,0-16.5,59.3-16.5,132.6S302.6,312.5,311.7,312.5"/>
		</g>
	</g>
	<g style="clip-path:url(#SVGID_00000039091943082311046890000004301556803290343345_);">
		<g>
			<defs>
				<rect id="SVGID_00000168812399882920348200000013114924309148279993_" x="224.9" y="20" width="124.8" height="289.2"/>
			</defs>
			<clipPath id="SVGID_00000047769583523163881240000008458233801629074848_">
				<use xlink:href="#SVGID_00000168812399882920348200000013114924309148279993_"  style="overflow:visible;"/>
			</clipPath>
			<path style="clip-path:url(#SVGID_00000047769583523163881240000008458233801629074848_);fill:#F15A29;" d="M287.3,304.1
				c9.1,0,16.5-55.6,16.5-124.2c0-68.6-7.4-124.2-16.5-124.2c-9.1,0-16.5,55.6-16.5,124.2C270.8,248.5,278.2,304.1,287.3,304.1"/>
		</g>
	</g>
	<g style="clip-path:url(#SVGID_00000039091943082311046890000004301556803290343345_);">
		<g>
			<defs>
				<rect id="SVGID_00000023969407464972411910000002917192493717130162_" x="209.3" y="27.6" width="115" height="274"/>
			</defs>
			<clipPath id="SVGID_00000107563993197185656290000014581107274683423131_">
				<use xlink:href="#SVGID_00000023969407464972411910000002917192493717130162_"  style="overflow:visible;"/>
			</clipPath>
			<path style="clip-path:url(#SVGID_00000107563993197185656290000014581107274683423131_);fill:#FF8C20;" d="M266.8,296.5
				c6.4,0,11.6-52.2,11.6-116.6c0-64.4-5.2-116.6-11.6-116.6s-11.6,52.2-11.6,116.6C255.2,244.3,260.4,296.5,266.8,296.5"/>
		</g>
	</g>
	<g style="clip-path:url(#SVGID_00000039091943082311046890000004301556803290343345_);">
		<g>
			<defs>
				<rect id="SVGID_00000155133878359974483950000005947310484349914262_" x="172.6" y="39.4" width="115" height="249.1"/>
			</defs>
			<clipPath id="SVGID_00000037666975010982730370000006616574656672999323_">
				<use xlink:href="#SVGID_00000155133878359974483950000005947310484349914262_"  style="overflow:visible;"/>
			</clipPath>
			<path style="clip-path:url(#SVGID_00000037666975010982730370000006616574656672999323_);fill:#FFC220;" d="M230.1,283.4
				c6.4,0,11.6-46.6,11.6-104.1s-5.2-104.1-11.6-104.1c-6.4,0-11.6,46.6-11.6,104.1S223.7,283.4,230.1,283.4"/>
		</g>
	</g>
	<g style="clip-path:url(#SVGID_00000039091943082311046890000004301556803290343345_);">
		<g>
			<defs>
				<rect id="SVGID_00000029747559096550512490000012462209519549857955_" x="99.7" y="60.4" width="115" height="209.1"/>
			</defs>
			<clipPath id="SVGID_00000111151374870293587740000011056078567081775753_">
				<use xlink:href="#SVGID_00000029747559096550512490000012462209519549857955_"  style="overflow:visible;"/>
			</clipPath>
			<path style="clip-path:url(#SVGID_00000111151374870293587740000011056078567081775753_);fill:#A3D53C;" d="M157.3,264.4
				c6.4,0,11.6-37.7,11.6-84.2s-5.2-84.2-11.6-84.2c-6.4,0-11.6,37.7-11.6,84.2S150.9,264.4,157.3,264.4"/>
		</g>
	</g>
	<g style="clip-path:url(#SVGID_00000039091943082311046890000004301556803290343345_);">
		<g>
			<defs>
				<rect id="SVGID_00000031906472348055340240000006517519501378828983_" x="-2.7" y="77.4" width="111.2" height="175.1"/>
			</defs>
			<clipPath id="SVGID_00000036948481625295785450000017616393262421834425_">
				<use xlink:href="#SVGID_00000031906472348055340240000006517519501378828983_"  style="overflow:visible;"/>
			</clipPath>
			<path style="clip-path:url(#SVGID_00000036948481625295785450000017616393262421834425_);fill:#95AC41;" d="M52.9,247.4
				c5.4,0,9.7-30.1,9.7-67.1c0-37.1-4.3-67.1-9.7-67.1s-9.7,30.1-9.7,67.1C43.2,217.3,47.6,247.4,52.9,247.4"/>
		</g>
	</g>
</g>
</svg>
