<svg version="1.1" id="Layer_1" xmlns="http://www.w3.org/2000/svg" xmlns:xlink="http://www.w3.org/1999/xlink" x="0px" y="0px"
	 width="100%" viewBox="0 0 1367 1180" enable-background="new 0 0 1367 1180" xml:space="preserve">
<path fill="#FFFFFF" opacity="1.000000" stroke="none" 
	d="
M767.000000,1181.000000 
	C511.333344,1181.000000 256.166656,1181.000000 1.000000,1181.000000 
	C1.000000,787.666687 1.000000,394.333344 1.000000,1.000000 
	C456.666656,1.000000 912.333313,1.000000 1368.000000,1.000000 
	C1368.000000,394.333344 1368.000000,787.666687 1368.000000,1181.000000 
	C1167.833374,1181.000000 967.666687,1181.000000 767.000000,1181.000000 
M1173.720825,441.363007 
	C1172.801147,440.399872 1171.925781,439.389221 1170.954834,438.480865 
	C1159.134033,427.421234 1155.735352,415.014191 1162.393799,399.417603 
	C1165.539429,392.049286 1166.706543,383.333130 1166.666504,375.238098 
	C1166.618774,365.595123 1164.704224,355.890045 1162.912354,346.340637 
	C1157.733765,318.742523 1147.802002,292.914307 1132.755005,268.353577 
	C1130.245850,264.478088 1127.954590,260.438202 1125.182251,256.761200 
	C1119.329712,248.999313 1113.599854,241.090210 1107.109741,233.880676 
	C1101.602905,227.763596 1095.098755,222.544434 1088.722778,216.338760 
	C1084.452759,212.700424 1080.476685,208.625061 1075.852295,205.513321 
	C1065.756226,198.719772 1055.330566,192.416153 1044.636475,185.363297 
	C1038.142212,182.105255 1031.780884,178.538132 1025.118286,175.670975 
	C1017.567139,172.421371 1009.745911,169.798950 1001.573364,166.330429 
	C997.496216,165.114029 993.470215,163.674423 989.331543,162.726959 
	C980.262451,160.650818 971.136353,158.824097 961.502869,156.288956 
	C959.247803,155.989487 957.000244,155.603973 954.736328,155.405701 
	C945.823364,154.625198 936.905334,153.903564 927.059265,153.046280 
	C916.855164,153.029541 906.650696,152.967697 896.447327,153.045853 
	C894.959839,153.057251 893.477539,153.737076 891.197144,153.913269 
	C885.450806,151.732376 880.437317,152.955688 876.473022,157.549408 
	C874.127197,160.267609 871.601501,163.117096 870.259766,166.363434 
	C865.621155,177.587006 861.466492,189.010620 856.383972,199.998383 
	C851.585510,187.555344 847.640686,174.690567 841.758179,162.783081 
	C835.355408,149.822525 824.606018,149.604141 817.175537,161.929764 
	C812.620361,169.486008 809.230042,177.884979 806.316895,186.253708 
	C802.968201,195.873444 800.723938,205.877640 797.776855,214.819565 
	C796.435547,208.498825 795.524109,202.047607 793.654419,195.887222 
	C790.679932,186.086685 787.639160,176.230545 783.557922,166.863480 
	C779.683167,157.970551 772.807190,158.009323 767.723999,166.341019 
	C766.266174,168.730545 765.141785,171.361633 764.145203,173.988449 
	C756.325378,194.599976 753.334045,216.277023 750.129700,237.907333 
	C749.114075,244.762985 747.976135,251.600525 746.588745,257.524597 
	C745.325562,250.032288 744.526917,242.424667 742.702271,235.071686 
	C738.928650,219.865494 734.926636,204.697205 730.326904,189.725845 
	C728.883179,185.026688 725.913696,179.386627 719.975952,179.596603 
	C713.742554,179.817062 711.282837,185.663391 709.237610,190.718506 
	C699.582947,214.581360 696.023254,239.808167 692.304504,265.507324 
	C691.849854,264.943359 691.080322,264.427124 690.986572,263.808441 
	C688.876587,249.887863 687.200439,235.889496 684.641846,222.053879 
	C683.329651,214.958115 680.689758,208.065674 678.151123,201.267593 
	C677.488586,199.493378 675.002380,197.391342 673.272705,197.316757 
	C671.640930,197.246368 669.288757,199.309631 668.342407,201.032455 
	C666.529907,204.332047 665.161743,207.967819 664.181458,211.617767 
	C656.919922,238.654114 654.742310,266.457886 652.314880,294.181519 
	C650.520081,314.679901 649.260986,335.241150 648.397949,355.801056 
	C647.351807,380.721222 646.603943,405.666534 646.406982,430.606354 
	C646.193970,457.567902 646.581482,484.538910 647.052979,511.499756 
	C647.430786,533.105957 647.964478,554.721863 649.086609,576.299255 
	C650.379639,601.160767 651.860107,626.036804 654.269104,650.808289 
	C656.143188,670.079346 659.304932,689.242737 662.453186,708.361938 
	C663.433594,714.315796 665.791809,720.174927 668.334717,725.702271 
	C670.881042,731.237000 674.804199,731.139282 677.792236,725.893799 
	C679.095398,723.606140 680.419983,721.147400 680.907166,718.607605 
	C684.334717,700.738281 687.516296,682.821838 690.884644,664.940796 
	C691.153015,663.516235 692.235657,662.245056 693.001648,661.805542 
	C694.405090,671.629395 695.489441,681.512024 697.284668,691.263794 
	C700.186401,707.026611 703.013550,722.869141 710.105652,737.467957 
	C712.166443,741.709900 714.008972,746.720459 719.901428,746.810974 
	C725.852478,746.902527 727.721191,741.887939 729.833557,737.661743 
	C737.103455,723.117554 739.649170,707.210571 742.751465,691.486450 
	C744.315247,683.560791 745.588501,675.577759 747.202393,668.703308 
	C747.492859,669.822510 747.861572,670.927795 748.062073,672.062866 
	C752.121460,695.044128 755.834229,718.094116 760.405273,740.972717 
	C761.774353,747.825134 765.082458,754.429810 768.312012,760.733093 
	C771.802307,767.545532 777.166687,767.810120 782.075928,762.043579 
	C783.135620,760.798706 784.034241,759.356079 784.735291,757.875854 
	C792.275635,741.956421 795.046265,724.753845 798.752808,708.200134 
	C802.394775,721.050415 805.461243,734.104431 809.908447,746.669678 
	C812.329285,753.509583 816.440308,760.039062 820.982849,765.760742 
	C825.715149,771.721497 832.281982,771.543701 837.219788,765.842773 
	C840.943176,761.543945 844.354248,756.647583 846.575928,751.449463 
	C850.197083,742.977234 852.702271,734.030457 855.798157,725.326477 
	C856.012207,724.724792 857.219055,724.476074 858.049988,724.850769 
	C861.377136,737.115112 865.212830,749.221130 872.342651,759.876770 
	C876.166016,765.591003 880.423218,771.341370 889.767578,769.928284 
	C913.840149,769.900085 937.912659,769.871887 962.916382,769.967224 
	C967.238770,769.979248 971.580505,769.741699 975.878052,770.074463 
	C980.070312,770.398987 982.350342,769.063965 983.245056,764.756287 
	C983.802979,762.069824 985.341614,759.580505 986.487488,757.023926 
	C992.014587,744.692322 997.557861,732.367920 1003.660278,719.649658 
	C1005.438293,716.116577 1006.885681,712.362061 1009.069580,709.100708 
	C1012.590698,703.842346 1016.195190,698.534241 1020.492188,693.925598 
	C1027.025269,686.918457 1035.765015,685.373718 1045.874268,685.973206 
	C1059.911133,688.274170 1073.948120,690.575073 1088.857788,692.976257 
	C1092.934326,693.498108 1097.004761,694.074951 1101.088623,694.531006 
	C1111.382690,695.680542 1121.682983,696.775574 1132.909302,697.979553 
	C1134.737183,697.989075 1136.567261,697.945435 1138.392700,698.016296 
	C1158.367920,698.791870 1175.715942,678.570679 1176.097778,660.606506 
	C1176.286377,651.733643 1173.219360,644.158875 1169.307861,636.578186 
	C1163.751221,625.808960 1164.724609,621.605225 1174.645508,613.715820 
	C1175.678711,613.180603 1176.678345,612.563660 1177.750366,612.122925 
	C1187.041260,608.303650 1191.508911,599.487061 1184.174805,590.245300 
	C1181.294312,586.615601 1181.202515,582.971252 1185.465942,580.010620 
	C1186.953735,578.977539 1188.271484,577.702637 1189.723755,576.614136 
	C1198.978027,569.678528 1200.485840,561.673035 1194.389526,551.961548 
	C1192.540894,549.016785 1190.601807,546.103271 1189.054199,543.000793 
	C1185.990845,536.859436 1186.997803,533.837463 1193.054199,530.488586 
	C1200.746216,526.235168 1208.765869,522.508240 1216.153687,517.786804 
	C1226.200806,511.365784 1227.786011,502.463501 1220.969849,492.629120 
	C1217.780518,488.027557 1213.934204,483.849701 1210.132080,479.712769 
	C1205.631592,474.815918 1200.808838,470.216858 1196.213135,465.405396 
	C1188.780029,457.623199 1181.418213,449.772919 1173.720825,441.363007 
M603.905884,261.427094 
	C602.432129,254.463242 601.194885,247.437622 599.398193,240.558136 
	C598.275391,236.259262 596.680481,231.987427 594.631592,228.049927 
	C591.762085,222.535034 587.248474,222.454330 584.161072,227.760635 
	C582.433960,230.729065 580.881653,234.021423 580.234131,237.358688 
	C576.737061,255.382767 572.560669,273.354248 570.489258,291.556732 
	C567.565063,317.252747 565.809753,343.109863 564.423645,368.944702 
	C563.123718,393.174011 562.673218,417.460541 562.377930,441.728302 
	C562.153442,460.187683 562.696838,478.658203 563.013794,497.121765 
	C563.242065,510.421478 563.397217,523.730835 564.051514,537.012939 
	C565.194824,560.223999 566.222717,583.457825 568.194275,606.605835 
	C569.866333,626.236572 572.235657,645.852173 575.408813,665.292847 
	C577.097168,675.636719 580.618530,685.793640 584.326599,695.653564 
	C586.550171,701.566101 591.909668,701.398804 594.377441,695.524170 
	C597.372803,688.393677 600.468567,681.009277 601.601318,673.447205 
	C605.208008,649.370911 608.693115,625.227600 610.783203,600.985840 
	C613.220093,572.720459 615.135132,544.336182 615.483887,515.981506 
	C616.034607,471.209320 615.743652,426.401367 614.546692,381.642273 
	C613.775635,352.808929 610.961060,324.018463 608.620117,295.244781 
	C607.722107,284.207062 605.595337,273.269318 603.905884,261.427094 
M397.077759,507.545349 
	C397.382660,514.848511 397.412720,522.175415 398.041870,529.450562 
	C400.299316,555.554932 402.094086,581.726868 405.416138,607.700256 
	C407.144623,621.214355 411.339050,634.474426 415.230988,647.608887 
	C416.251434,651.052490 419.924835,655.480103 423.048828,656.103516 
	C427.417084,656.975098 429.988342,651.944885 431.107056,648.003601 
	C434.581482,635.762878 438.469116,623.533875 440.562714,611.026794 
	C446.572876,575.121887 448.673981,538.789490 449.562927,502.464630 
	C450.584564,460.718353 450.213013,418.958862 447.076538,377.252869 
	C445.184479,352.093842 443.108459,326.970367 437.669098,302.314636 
	C435.656036,293.189697 432.391602,284.212311 428.603302,275.652008 
	C426.009918,269.791779 421.577728,269.608093 418.035583,275.056702 
	C414.944305,279.811798 412.797272,285.406616 411.279266,290.918610 
	C405.495087,311.921295 402.530762,333.442322 401.084991,355.132904 
	C399.241272,382.793823 397.261932,410.468048 396.458069,438.168945 
	C395.797180,460.943054 396.766266,483.764435 397.077759,507.545349 
M838.990173,1039.661255 
	C839.660156,1044.508179 840.542175,1049.338013 840.934875,1054.207275 
	C841.263611,1058.282837 843.164246,1060.058838 847.157349,1060.015747 
	C852.988037,1059.953003 858.820007,1060.014038 864.651306,1059.995850 
	C870.172668,1059.978760 871.823669,1058.175659 870.963013,1052.702393 
	C869.724243,1044.824951 868.359497,1036.965698 866.941711,1029.117920 
	C863.328430,1009.117798 859.562256,989.144775 856.032593,969.129944 
	C852.245972,947.658203 848.690735,926.145569 844.905945,904.673523 
	C844.684265,903.415894 843.561584,901.877502 842.433228,901.299561 
	C838.624023,899.348572 833.145081,901.410156 831.257263,905.380737 
	C825.326599,917.854797 819.481567,930.369568 813.592163,942.863281 
	C811.096313,948.157959 808.510315,953.410950 806.073547,958.732483 
	C798.596619,975.061218 791.172058,991.413940 783.667297,1007.888550 
	C783.338074,1007.500610 783.195251,1007.389832 783.127441,1007.244202 
	C771.399414,982.072632 759.686584,956.894043 747.948975,931.726990 
	C743.691895,922.599182 739.199463,913.576233 735.163574,904.352600 
	C733.180725,899.820984 729.536255,900.954407 726.306885,901.149597 
	C724.847046,901.237854 722.845764,902.607239 722.224426,903.928711 
	C721.292358,905.910950 721.387085,908.367676 720.996155,910.614136 
	C718.820374,923.115051 716.657715,935.618347 714.436768,948.111328 
	C711.988953,961.880554 709.465942,975.636414 707.007507,989.403748 
	C704.748901,1002.052185 702.442505,1014.693054 700.327393,1027.365723 
	C698.744873,1036.846558 697.401428,1046.367920 696.019470,1055.881226 
	C695.594482,1058.807373 696.867249,1060.115723 699.975586,1060.045410 
	C706.636597,1059.894653 713.303894,1059.955322 719.967712,1060.020020 
	C722.890869,1060.048462 724.584106,1058.975342 725.038025,1055.889282 
	C725.913391,1049.938354 727.086426,1044.031738 727.975891,1038.082642 
	C730.700562,1019.859497 733.328735,1001.621887 736.047974,983.397888 
	C736.504456,980.338806 737.227600,977.319519 738.000977,973.403198 
	C743.290955,984.855774 748.205017,995.258972 752.918884,1005.752075 
	C760.961121,1023.654236 768.863525,1041.619141 776.887085,1059.529663 
	C777.308105,1060.469482 778.163086,1061.571533 779.063049,1061.882080 
	C784.657104,1063.811768 789.184204,1061.475220 791.640564,1055.838989 
	C795.594177,1046.767090 799.714844,1037.767944 803.685974,1028.703613 
	C808.239441,1018.309998 812.630371,1007.844788 817.236084,997.474731 
	C820.823181,989.398376 824.630981,981.420105 828.789368,972.427979 
	C828.973450,975.576233 828.924500,977.561157 829.229187,979.490173 
	C831.108582,991.389954 833.057068,1003.278931 835.004211,1015.167908 
	C836.293091,1023.037537 837.618225,1030.901245 838.990173,1039.661255 
M193.017868,607.563782 
	C199.768356,588.993896 201.971909,569.502258 203.591660,550.062805 
	C205.630615,525.592590 207.056854,501.028687 207.512772,476.482269 
	C207.907379,455.237152 207.156097,433.924347 205.848984,412.706909 
	C204.514725,391.048798 202.411423,369.401672 199.597214,347.886780 
	C198.236603,337.484711 194.785553,327.298462 191.596939,317.231171 
	C190.734268,314.507477 187.456177,310.877747 185.140701,310.768829 
	C182.951340,310.665863 179.580368,314.231232 178.470779,316.905670 
	C175.824036,323.285156 173.734528,329.987793 172.253601,336.742706 
	C166.516647,362.910095 164.603790,389.585327 163.479019,416.231354 
	C162.463654,440.285645 163.036346,464.409119 163.002365,488.502197 
	C162.961563,517.432739 165.061020,546.239197 169.349670,574.828247 
	C171.036270,586.071350 173.906067,597.202515 177.164917,608.107361 
	C178.251724,611.744080 181.867584,616.662964 184.966614,617.182556 
	C189.616196,617.962036 191.114441,612.224304 193.017868,607.563782 
M1161.073608,980.448486 
	C1159.419800,977.085999 1157.675171,973.764587 1156.127075,970.354187 
	C1146.271240,948.644592 1136.423096,926.931274 1126.668335,905.176208 
	C1125.151123,901.792419 1122.833374,900.920227 1119.275146,900.865906 
	C1115.697998,900.811340 1114.833984,902.914856 1113.884766,905.442993 
	C1113.259766,907.107544 1112.633545,908.778076 1111.885132,910.388916 
	C1103.677246,928.055664 1095.439331,945.708252 1087.221313,963.370239 
	C1075.920532,987.657715 1064.604004,1011.937988 1053.353882,1036.248901 
	C1050.701294,1041.980957 1048.121582,1047.758301 1045.818970,1053.636597 
	C1044.146362,1057.906128 1045.591431,1059.905884 1050.051636,1059.976318 
	C1056.045288,1060.071167 1062.064087,1059.679810 1068.029175,1060.103149 
	C1072.657227,1060.431641 1075.125000,1058.274902 1076.804810,1054.519287 
	C1079.584473,1048.304932 1082.376221,1042.093628 1084.997437,1035.812134 
	C1086.150391,1033.048828 1087.718750,1031.889771 1090.914673,1031.917236 
	C1110.230713,1032.083496 1129.550049,1032.098267 1148.865723,1031.913940 
	C1152.554443,1031.878784 1153.860352,1033.362549 1155.126343,1036.572510 
	C1157.742310,1043.204834 1160.923340,1049.622925 1164.061035,1056.036621 
	C1165.345337,1058.661987 1167.374268,1060.228027 1170.749023,1060.077637 
	C1176.898438,1059.803955 1183.069092,1060.033081 1189.230347,1059.990234 
	C1194.651489,1059.952515 1196.203735,1058.056763 1193.951904,1052.922119 
	C1187.371704,1037.917358 1180.390503,1023.088806 1173.627686,1008.163452 
	C1169.545288,999.153992 1165.576660,990.092957 1161.073608,980.448486 
M978.000000,1031.500000 
	C978.000000,990.846863 978.003418,950.193665 977.996460,909.540527 
	C977.995422,903.528259 977.463074,903.014771 971.388977,903.002625 
	C965.390991,902.990662 959.390991,903.092651 953.395691,902.966492 
	C949.632263,902.887268 947.968445,904.433411 947.971863,908.257446 
	C948.015137,957.074585 948.015015,1005.891724 947.971741,1054.708862 
	C947.968384,1058.506836 949.583496,1060.104370 953.361938,1060.032715 
	C959.690918,1059.912598 966.026611,1059.885864 972.354004,1060.041260 
	C976.344421,1060.139282 978.120361,1058.574219 978.040283,1054.491821 
	C977.896606,1047.163818 977.999939,1039.830933 978.000000,1031.500000 
z"/>
<path fill="#0071CE" opacity="1.000000" stroke="none" 
	d="
M857.127625,200.358109 
	C861.466492,189.010620 865.621155,177.587006 870.259766,166.363434 
	C871.601501,163.117096 874.127197,160.267609 876.473022,157.549408 
	C880.437317,152.955688 885.450806,151.732376 891.717285,154.315582 
	C895.153992,158.082245 898.956543,161.022171 900.811707,164.894989 
	C905.365479,174.401459 910.110779,184.047562 912.806885,194.163147 
	C917.983215,213.583908 921.792603,233.368988 926.126282,253.414215 
	C926.704285,257.582611 927.523010,261.319244 927.914429,265.100098 
	C930.954468,294.459686 934.539551,323.781586 936.707581,353.207153 
	C938.636108,379.381683 939.497925,405.666077 939.885803,431.915985 
	C940.596008,479.990448 939.965210,528.056946 936.078674,576.024292 
	C934.965942,589.758423 934.370483,603.549133 932.787170,617.226929 
	C930.577698,636.313843 927.859192,655.348633 925.000305,674.351807 
	C921.467651,697.832458 916.571106,721.043640 907.971191,743.251038 
	C903.964966,753.596191 899.819214,764.197815 888.841309,769.654541 
	C880.423218,771.341370 876.166016,765.591003 872.342651,759.876770 
	C865.212830,749.221130 861.377136,737.115112 858.036987,724.079712 
	C857.679688,721.855713 857.335266,720.402710 857.034546,718.565247 
	C857.374878,717.230530 857.779358,716.299377 857.952209,715.327087 
	C861.022461,698.062317 864.566223,680.862427 866.987305,663.506226 
	C870.117859,641.063843 872.610291,618.522156 874.871155,595.972473 
	C876.358582,581.137695 877.203857,566.224792 877.885315,551.326294 
	C878.803528,531.249634 879.784119,511.154510 879.843689,491.064697 
	C879.938049,459.276001 879.290771,427.485046 878.955261,395.695099 
	C878.948242,395.029053 878.935059,394.362122 878.893799,393.697540 
	C877.598389,372.850708 876.339722,352.001465 874.982056,331.158691 
	C874.378906,321.899109 873.850891,312.621185 872.799194,303.407440 
	C871.092468,288.454285 869.351807,273.487427 866.949280,258.635742 
	C863.991821,240.353210 860.341064,222.182861 856.995605,203.602631 
	C857.043396,202.280182 857.085510,201.319153 857.127625,200.358109 
z"/>
<path fill="#F15A2A" opacity="1.000000" stroke="none" 
	d="
M692.948486,265.128479 
	C696.023254,239.808167 699.582947,214.581360 709.237610,190.718506 
	C711.282837,185.663391 713.742554,179.817062 719.975952,179.596603 
	C725.913696,179.386627 728.883179,185.026688 730.326904,189.725845 
	C734.926636,204.697205 738.928650,219.865494 742.702271,235.071686 
	C744.526917,242.424667 745.325562,250.032288 746.738892,258.288696 
	C746.931091,261.702026 746.973206,264.351227 747.009766,267.426575 
	C745.678223,281.024628 744.115356,294.178040 743.086853,307.373108 
	C741.837646,323.400330 740.814453,339.452759 740.102051,355.512360 
	C739.197083,375.914124 738.177673,396.333160 738.142395,416.746368 
	C738.074280,456.177307 738.629211,495.609680 739.011902,535.040588 
	C739.068115,540.836548 739.607605,546.627319 739.903198,552.421509 
	C740.925659,572.464783 741.724792,592.522400 743.024780,612.547607 
	C744.032654,628.072876 745.662048,643.557861 747.024902,659.492798 
	C747.020752,662.490112 747.006958,665.055359 746.993164,667.620667 
	C745.588501,675.577759 744.315247,683.560791 742.751465,691.486450 
	C739.649170,707.210571 737.103455,723.117554 729.833557,737.661743 
	C727.721191,741.887939 725.852478,746.902527 719.901428,746.810974 
	C714.008972,746.720459 712.166443,741.709900 710.105652,737.467957 
	C703.013550,722.869141 700.186401,707.026611 697.284668,691.263794 
	C695.489441,681.512024 694.405090,671.629395 692.992920,660.949585 
	C692.362244,656.359192 691.740417,652.624695 691.405884,648.657471 
	C692.120789,647.184509 692.840637,645.965332 692.932129,644.700684 
	C694.330811,625.376770 695.817566,606.056702 696.930542,586.715393 
	C697.854797,570.653870 698.505249,554.570801 698.936035,538.488098 
	C699.470093,518.548157 699.937927,498.598389 699.915161,478.653473 
	C699.886414,453.378296 699.384155,428.102936 698.978760,402.829376 
	C698.864502,395.703491 698.349121,388.584717 698.062195,381.460846 
	C697.367737,364.218842 696.780334,346.972107 695.992676,329.734436 
	C695.448120,317.815277 694.833618,305.892456 693.864990,294.002686 
	C693.429749,288.660736 692.052490,283.395508 691.113403,277.689636 
	C691.732300,273.231995 692.340393,269.180237 692.948486,265.128479 
z"/>
<path fill="#80CAE2" opacity="1.000000" stroke="none" 
	d="
M1003.095337,720.040955 
	C997.557861,732.367920 992.014587,744.692322 986.487488,757.023926 
	C985.341614,759.580505 983.802979,762.069824 983.245056,764.756287 
	C982.350342,769.063965 980.070312,770.398987 975.878052,770.074463 
	C971.580505,769.741699 967.238770,769.979248 962.455933,769.449829 
	C961.997009,720.802246 961.997009,672.671936 962.000244,624.541687 
	C962.010681,468.659637 962.022339,312.777557 962.033508,156.895508 
	C971.136353,158.824097 980.262451,160.650818 989.331543,162.726959 
	C993.470215,163.674423 997.496216,165.114029 1001.793640,167.094147 
	C1002.009277,350.208191 1002.001648,532.558533 1002.045349,714.908875 
	C1002.045776,716.619629 1002.730225,718.330261 1003.095337,720.040955 
z"/>
<path fill="#8BCFE7" opacity="1.000000" stroke="none" 
	d="
M1003.377808,719.845337 
	C1002.730225,718.330261 1002.045776,716.619629 1002.045349,714.908875 
	C1002.001648,532.558533 1002.009277,350.208191 1002.028015,167.380859 
	C1009.745911,169.798950 1017.567139,172.421371 1025.118286,175.670975 
	C1031.780884,178.538132 1038.142212,182.105255 1044.824341,186.114456 
	C1045.001343,353.197449 1044.990601,519.529297 1044.979858,685.861145 
	C1035.765015,685.373718 1027.025269,686.918457 1020.492188,693.925598 
	C1016.195190,698.534241 1012.590698,703.842346 1009.069580,709.100708 
	C1006.885681,712.362061 1005.438293,716.116577 1003.377808,719.845337 
z"/>
<path fill="#98D5EB" opacity="1.000000" stroke="none" 
	d="
M1045.427002,685.917175 
	C1044.990601,519.529297 1045.001343,353.197449 1045.025879,186.389008 
	C1055.330566,192.416153 1065.756226,198.719772 1075.852295,205.513321 
	C1080.476685,208.625061 1084.452759,212.700424 1088.866943,217.108887 
	C1089.007324,373.429993 1089.008911,528.981018 1088.957764,684.531982 
	C1088.956787,687.313477 1088.323364,690.094666 1087.984985,692.876038 
	C1073.948120,690.575073 1059.911133,688.274170 1045.427002,685.917175 
z"/>
<path fill="#FFC323" opacity="1.000000" stroke="none" 
	d="
M603.967163,261.856567 
	C605.595337,273.269318 607.722107,284.207062 608.620117,295.244781 
	C610.961060,324.018463 613.775635,352.808929 614.546692,381.642273 
	C615.743652,426.401367 616.034607,471.209320 615.483887,515.981506 
	C615.135132,544.336182 613.220093,572.720459 610.783203,600.985840 
	C608.693115,625.227600 605.208008,649.370911 601.601318,673.447205 
	C600.468567,681.009277 597.372803,688.393677 594.377441,695.524170 
	C591.909668,701.398804 586.550171,701.566101 584.326599,695.653564 
	C580.618530,685.793640 577.097168,675.636719 575.408813,665.292847 
	C572.235657,645.852173 569.866333,626.236572 568.194275,606.605835 
	C566.222717,583.457825 565.194824,560.223999 564.051514,537.012939 
	C563.397217,523.730835 563.242065,510.421478 563.013794,497.121765 
	C562.696838,478.658203 562.153442,460.187683 562.377930,441.728302 
	C562.673218,417.460541 563.123718,393.174011 564.423645,368.944702 
	C565.809753,343.109863 567.565063,317.252747 570.489258,291.556732 
	C572.560669,273.354248 576.737061,255.382767 580.234131,237.358688 
	C580.881653,234.021423 582.433960,230.729065 584.161072,227.760635 
	C587.248474,222.454330 591.762085,222.535034 594.631592,228.049927 
	C596.680481,231.987427 598.275391,236.259262 599.398193,240.558136 
	C601.194885,247.437622 602.432129,254.463242 603.967163,261.856567 
z"/>
<path fill="#318CD7" opacity="1.000000" stroke="none" 
	d="
M856.990845,718.949646 
	C857.335266,720.402710 857.679688,721.855713 857.994141,723.685913 
	C857.219055,724.476074 856.012207,724.724792 855.798157,725.326477 
	C852.702271,734.030457 850.197083,742.977234 846.575928,751.449463 
	C844.354248,756.647583 840.943176,761.543945 837.219788,765.842773 
	C832.281982,771.543701 825.715149,771.721497 820.982849,765.760742 
	C816.440308,760.039062 812.329285,753.509583 809.908447,746.669678 
	C805.461243,734.104431 802.394775,721.050415 798.463440,707.544678 
	C798.203918,706.129456 798.233704,705.369690 798.481628,704.338318 
	C802.051331,673.696716 806.036987,643.379395 808.564575,612.941040 
	C810.805786,585.951233 811.958374,558.839844 812.621216,531.758423 
	C813.357727,501.663940 813.139465,471.542175 813.059143,441.433044 
	C813.009399,422.796021 812.618164,404.155090 812.058655,385.525574 
	C811.489624,366.575073 810.978088,347.604034 809.623779,328.700562 
	C807.819397,303.516083 805.426758,278.367706 802.875793,253.245575 
	C801.773865,242.393555 799.643250,231.645950 797.975037,220.472595 
	C797.980103,218.634476 797.990051,217.174667 798.000000,215.714859 
	C800.723938,205.877640 802.968201,195.873444 806.316895,186.253708 
	C809.230042,177.884979 812.620361,169.486008 817.175537,161.929764 
	C824.606018,149.604141 835.355408,149.822525 841.758179,162.783081 
	C847.640686,174.690567 851.585510,187.555344 856.755798,200.178253 
	C857.085510,201.319153 857.043396,202.280182 856.711426,203.849884 
	C847.116211,238.999695 842.854370,274.394836 839.165344,309.833069 
	C836.813782,332.423798 835.320374,355.124817 834.163269,377.813141 
	C832.995300,400.715088 832.474976,423.658936 832.139893,446.591248 
	C831.933533,460.713593 832.510315,474.851440 832.905273,488.977570 
	C833.485657,509.741058 833.844360,530.520874 834.987183,551.255737 
	C836.200806,573.275818 837.703186,595.306396 840.030334,617.231506 
	C842.424927,639.792114 845.611267,662.287170 849.153625,684.699829 
	C850.977661,696.241089 854.329468,707.540771 856.990845,718.949646 
z"/>
<path fill="#A4DAF0" opacity="1.000000" stroke="none" 
	d="
M1088.421387,692.926147 
	C1088.323364,690.094666 1088.956787,687.313477 1088.957764,684.531982 
	C1089.008911,528.981018 1089.007324,373.429993 1089.023438,217.403488 
	C1095.098755,222.544434 1101.602905,227.763596 1107.109741,233.880676 
	C1113.599854,241.090210 1119.329712,248.999313 1125.182251,256.761200 
	C1127.954590,260.438202 1130.245850,264.478088 1132.600220,268.950439 
	C1132.296997,271.687561 1132.018799,273.827820 1132.018433,275.968109 
	C1131.991455,416.609528 1131.987061,557.250977 1131.980713,697.892395 
	C1121.682983,696.775574 1111.382690,695.680542 1101.088623,694.531006 
	C1097.004761,694.074951 1092.934326,693.498108 1088.421387,692.926147 
z"/>
<path fill="#75C4DF" opacity="1.000000" stroke="none" 
	d="
M961.768188,156.592224 
	C962.022339,312.777557 962.010681,468.659637 962.000244,624.541687 
	C961.997009,672.671936 961.997009,720.802246 961.990356,769.388062 
	C937.912659,769.871887 913.840149,769.900085 889.304443,769.791382 
	C899.819214,764.197815 903.964966,753.596191 907.971191,743.251038 
	C916.571106,721.043640 921.467651,697.832458 925.000305,674.351807 
	C927.859192,655.348633 930.577698,636.313843 932.787170,617.226929 
	C934.370483,603.549133 934.965942,589.758423 936.078674,576.024292 
	C939.965210,528.056946 940.596008,479.990448 939.885803,431.915985 
	C939.497925,405.666077 938.636108,379.381683 936.707581,353.207153 
	C934.539551,323.781586 930.954468,294.459686 927.914429,265.100098 
	C927.523010,261.319244 926.704285,257.582611 926.505127,253.305527 
	C927.284485,251.097305 927.951111,249.409653 927.954285,247.720749 
	C928.013000,216.200607 927.992798,184.680328 927.989136,153.160065 
	C936.905334,153.903564 945.823364,154.625198 954.736328,155.405701 
	C957.000244,155.603973 959.247803,155.989487 961.768188,156.592224 
z"/>
<path fill="#F03278" opacity="1.000000" stroke="none" 
	d="
M798.263428,704.609985 
	C798.233704,705.369690 798.203918,706.129456 798.165894,707.267212 
	C795.046265,724.753845 792.275635,741.956421 784.735291,757.875854 
	C784.034241,759.356079 783.135620,760.798706 782.075928,762.043579 
	C777.166687,767.810120 771.802307,767.545532 768.312012,760.733093 
	C765.082458,754.429810 761.774353,747.825134 760.405273,740.972717 
	C755.834229,718.094116 752.121460,695.044128 748.062073,672.062866 
	C747.861572,670.927795 747.492859,669.822510 747.097778,668.161987 
	C747.006958,665.055359 747.020752,662.490112 747.290039,659.186035 
	C749.004883,645.276611 750.759155,632.130432 751.853760,618.929443 
	C753.443665,599.756775 754.828796,580.558411 755.799438,561.345581 
	C756.805054,541.440186 757.691406,521.506470 757.771118,501.581757 
	C757.897583,469.976318 757.388977,438.366974 756.988403,406.761353 
	C756.807190,392.468292 756.669617,378.152527 755.752808,363.895874 
	C754.125061,338.583832 752.010620,313.301270 749.894531,288.023560 
	C749.305359,280.984833 747.994934,274.006470 747.015381,267.000427 
	C746.973206,264.351227 746.931091,261.702026 746.891602,258.749573 
	C747.976135,251.600525 749.114075,244.762985 750.129700,237.907333 
	C753.334045,216.277023 756.325378,194.599976 764.145203,173.988449 
	C765.141785,171.361633 766.266174,168.730545 767.723999,166.341019 
	C772.807190,158.009323 779.683167,157.970551 783.557922,166.863480 
	C787.639160,176.230545 790.679932,186.086685 793.654419,195.887222 
	C795.524109,202.047607 796.435547,208.498825 797.888428,215.267212 
	C797.990051,217.174667 797.980103,218.634476 797.787720,220.831604 
	C790.645203,254.813034 786.767273,288.499481 784.213440,322.299072 
	C781.896851,352.958435 780.023987,383.691589 779.339783,414.423065 
	C778.606628,447.354614 778.638245,480.354523 779.889526,513.265564 
	C781.360535,551.955750 783.708740,590.654358 787.201355,629.211182 
	C789.489502,654.470886 794.482117,679.485535 798.263428,704.609985 
z"/>
<path fill="#FF8D22" opacity="1.000000" stroke="none" 
	d="
M692.626465,265.317902 
	C692.340393,269.180237 691.732300,273.231995 691.088623,278.122742 
	C690.064148,288.518829 688.862610,298.059784 688.131165,307.636597 
	C686.653748,326.979980 685.139343,346.328491 684.184143,365.701721 
	C683.161743,386.437195 682.326660,407.200958 682.204346,427.957062 
	C682.043640,455.234070 682.474609,482.519165 682.998169,509.794128 
	C683.431763,532.384094 684.332581,554.965637 685.105835,577.548218 
	C685.310181,583.515991 685.671082,589.485901 686.197449,595.433838 
	C687.774841,613.258179 689.469604,631.072144 691.118530,648.890198 
	C691.740417,652.624695 692.362244,656.359192 692.962036,660.498169 
	C692.235657,662.245056 691.153015,663.516235 690.884644,664.940796 
	C687.516296,682.821838 684.334717,700.738281 680.907166,718.607605 
	C680.419983,721.147400 679.095398,723.606140 677.792236,725.893799 
	C674.804199,731.139282 670.881042,731.237000 668.334717,725.702271 
	C665.791809,720.174927 663.433594,714.315796 662.453186,708.361938 
	C659.304932,689.242737 656.143188,670.079346 654.269104,650.808289 
	C651.860107,626.036804 650.379639,601.160767 649.086609,576.299255 
	C647.964478,554.721863 647.430786,533.105957 647.052979,511.499756 
	C646.581482,484.538910 646.193970,457.567902 646.406982,430.606354 
	C646.603943,405.666534 647.351807,380.721222 648.397949,355.801056 
	C649.260986,335.241150 650.520081,314.679901 652.314880,294.181519 
	C654.742310,266.457886 656.919922,238.654114 664.181458,211.617767 
	C665.161743,207.967819 666.529907,204.332047 668.342407,201.032455 
	C669.288757,199.309631 671.640930,197.246368 673.272705,197.316757 
	C675.002380,197.391342 677.488586,199.493378 678.151123,201.267593 
	C680.689758,208.065674 683.329651,214.958115 684.641846,222.053879 
	C687.200439,235.889496 688.876587,249.887863 690.986572,263.808441 
	C691.080322,264.427124 691.849854,264.943359 692.626465,265.317902 
z"/>
<path fill="#A4D63F" opacity="1.000000" stroke="none" 
	d="
M397.045349,507.055115 
	C396.766266,483.764435 395.797180,460.943054 396.458069,438.168945 
	C397.261932,410.468048 399.241272,382.793823 401.084991,355.132904 
	C402.530762,333.442322 405.495087,311.921295 411.279266,290.918610 
	C412.797272,285.406616 414.944305,279.811798 418.035583,275.056702 
	C421.577728,269.608093 426.009918,269.791779 428.603302,275.652008 
	C432.391602,284.212311 435.656036,293.189697 437.669098,302.314636 
	C443.108459,326.970367 445.184479,352.093842 447.076538,377.252869 
	C450.213013,418.958862 450.584564,460.718353 449.562927,502.464630 
	C448.673981,538.789490 446.572876,575.121887 440.562714,611.026794 
	C438.469116,623.533875 434.581482,635.762878 431.107056,648.003601 
	C429.988342,651.944885 427.417084,656.975098 423.048828,656.103516 
	C419.924835,655.480103 416.251434,651.052490 415.230988,647.608887 
	C411.339050,634.474426 407.144623,621.214355 405.416138,607.700256 
	C402.094086,581.726868 400.299316,555.554932 398.041870,529.450562 
	C397.412720,522.175415 397.382660,514.848511 397.045349,507.055115 
z"/>
<path fill="#AFE0F4" opacity="1.000000" stroke="none" 
	d="
M1132.445068,697.935974 
	C1131.987061,557.250977 1131.991455,416.609528 1132.018433,275.968109 
	C1132.018799,273.827820 1132.296997,271.687561 1132.756592,269.258850 
	C1147.802002,292.914307 1157.733765,318.742523 1162.912354,346.340637 
	C1164.704224,355.890045 1166.618774,365.595123 1166.666504,375.238098 
	C1166.706543,383.333130 1165.539429,392.049286 1162.393799,399.417603 
	C1155.735352,415.014191 1159.134033,427.421234 1170.954834,438.480865 
	C1171.925781,439.389221 1172.801147,440.399872 1173.862793,442.091064 
	C1173.669922,448.270172 1173.053223,453.720734 1173.044189,459.172272 
	C1172.967163,505.970673 1172.971558,552.769348 1173.042847,599.567749 
	C1173.050171,604.352173 1173.654785,609.135742 1173.982056,613.919678 
	C1164.724609,621.605225 1163.751221,625.808960 1169.307861,636.578186 
	C1173.219360,644.158875 1176.286377,651.733643 1176.097778,660.606506 
	C1175.715942,678.570679 1158.367920,698.791870 1138.392700,698.016296 
	C1136.567261,697.945435 1134.737183,697.989075 1132.445068,697.935974 
z"/>
<path fill="#0071CE" opacity="1.000000" stroke="none" 
	d="
M838.958618,1039.214355 
	C837.618225,1030.901245 836.293091,1023.037537 835.004211,1015.167908 
	C833.057068,1003.278931 831.108582,991.389954 829.229187,979.490173 
	C828.924500,977.561157 828.973450,975.576233 828.789368,972.427979 
	C824.630981,981.420105 820.823181,989.398376 817.236084,997.474731 
	C812.630371,1007.844788 808.239441,1018.309998 803.685974,1028.703613 
	C799.714844,1037.767944 795.594177,1046.767090 791.640564,1055.838989 
	C789.184204,1061.475220 784.657104,1063.811768 779.063049,1061.882080 
	C778.163086,1061.571533 777.308105,1060.469482 776.887085,1059.529663 
	C768.863525,1041.619141 760.961121,1023.654236 752.918884,1005.752075 
	C748.205017,995.258972 743.290955,984.855774 738.000977,973.403198 
	C737.227600,977.319519 736.504456,980.338806 736.047974,983.397888 
	C733.328735,1001.621887 730.700562,1019.859497 727.975891,1038.082642 
	C727.086426,1044.031738 725.913391,1049.938354 725.038025,1055.889282 
	C724.584106,1058.975342 722.890869,1060.048462 719.967712,1060.020020 
	C713.303894,1059.955322 706.636597,1059.894653 699.975586,1060.045410 
	C696.867249,1060.115723 695.594482,1058.807373 696.019470,1055.881226 
	C697.401428,1046.367920 698.744873,1036.846558 700.327393,1027.365723 
	C702.442505,1014.693054 704.748901,1002.052185 707.007507,989.403748 
	C709.465942,975.636414 711.988953,961.880554 714.436768,948.111328 
	C716.657715,935.618347 718.820374,923.115051 720.996155,910.614136 
	C721.387085,908.367676 721.292358,905.910950 722.224426,903.928711 
	C722.845764,902.607239 724.847046,901.237854 726.306885,901.149597 
	C729.536255,900.954407 733.180725,899.820984 735.163574,904.352600 
	C739.199463,913.576233 743.691895,922.599182 747.948975,931.726990 
	C759.686584,956.894043 771.399414,982.072632 783.127441,1007.244202 
	C783.195251,1007.389832 783.338074,1007.500610 783.667297,1007.888550 
	C791.172058,991.413940 798.596619,975.061218 806.073547,958.732483 
	C808.510315,953.410950 811.096313,948.157959 813.592163,942.863281 
	C819.481567,930.369568 825.326599,917.854797 831.257263,905.380737 
	C833.145081,901.410156 838.624023,899.348572 842.433228,901.299561 
	C843.561584,901.877502 844.684265,903.415894 844.905945,904.673523 
	C848.690735,926.145569 852.245972,947.658203 856.032593,969.129944 
	C859.562256,989.144775 863.328430,1009.117798 866.941711,1029.117920 
	C868.359497,1036.965698 869.724243,1044.824951 870.963013,1052.702393 
	C871.823669,1058.175659 870.172668,1059.978760 864.651306,1059.995850 
	C858.820007,1060.014038 852.988037,1059.953003 847.157349,1060.015747 
	C843.164246,1060.058838 841.263611,1058.282837 840.934875,1054.207275 
	C840.542175,1049.338013 839.660156,1044.508179 838.958618,1039.214355 
z"/>
<path fill="#97AD44" opacity="1.000000" stroke="none" 
	d="
M192.928802,607.938354 
	C191.114441,612.224304 189.616196,617.962036 184.966614,617.182556 
	C181.867584,616.662964 178.251724,611.744080 177.164917,608.107361 
	C173.906067,597.202515 171.036270,586.071350 169.349670,574.828247 
	C165.061020,546.239197 162.961563,517.432739 163.002365,488.502197 
	C163.036346,464.409119 162.463654,440.285645 163.479019,416.231354 
	C164.603790,389.585327 166.516647,362.910095 172.253601,336.742706 
	C173.734528,329.987793 175.824036,323.285156 178.470779,316.905670 
	C179.580368,314.231232 182.951340,310.665863 185.140701,310.768829 
	C187.456177,310.877747 190.734268,314.507477 191.596939,317.231171 
	C194.785553,327.298462 198.236603,337.484711 199.597214,347.886780 
	C202.411423,369.401672 204.514725,391.048798 205.848984,412.706909 
	C207.156097,433.924347 207.907379,455.237152 207.512772,476.482269 
	C207.056854,501.028687 205.630615,525.592590 203.591660,550.062805 
	C201.971909,569.502258 199.768356,588.993896 192.928802,607.938354 
z"/>
<path fill="#0071CE" opacity="1.000000" stroke="none" 
	d="
M1161.315308,980.751770 
	C1165.576660,990.092957 1169.545288,999.153992 1173.627686,1008.163452 
	C1180.390503,1023.088806 1187.371704,1037.917358 1193.951904,1052.922119 
	C1196.203735,1058.056763 1194.651489,1059.952515 1189.230347,1059.990234 
	C1183.069092,1060.033081 1176.898438,1059.803955 1170.749023,1060.077637 
	C1167.374268,1060.228027 1165.345337,1058.661987 1164.061035,1056.036621 
	C1160.923340,1049.622925 1157.742310,1043.204834 1155.126343,1036.572510 
	C1153.860352,1033.362549 1152.554443,1031.878784 1148.865723,1031.913940 
	C1129.550049,1032.098267 1110.230713,1032.083496 1090.914673,1031.917236 
	C1087.718750,1031.889771 1086.150391,1033.048828 1084.997437,1035.812134 
	C1082.376221,1042.093628 1079.584473,1048.304932 1076.804810,1054.519287 
	C1075.125000,1058.274902 1072.657227,1060.431641 1068.029175,1060.103149 
	C1062.064087,1059.679810 1056.045288,1060.071167 1050.051636,1059.976318 
	C1045.591431,1059.905884 1044.146362,1057.906128 1045.818970,1053.636597 
	C1048.121582,1047.758301 1050.701294,1041.980957 1053.353882,1036.248901 
	C1064.604004,1011.937988 1075.920532,987.657715 1087.221313,963.370239 
	C1095.439331,945.708252 1103.677246,928.055664 1111.885132,910.388916 
	C1112.633545,908.778076 1113.259766,907.107544 1113.884766,905.442993 
	C1114.833984,902.914856 1115.697998,900.811340 1119.275146,900.865906 
	C1122.833374,900.920227 1125.151123,901.792419 1126.668335,905.176208 
	C1136.423096,926.931274 1146.271240,948.644592 1156.127075,970.354187 
	C1157.675171,973.764587 1159.419800,977.085999 1161.315308,980.751770 
M1108.562134,1006.000000 
	C1119.297607,1006.000000 1130.033203,1006.000000 1141.486694,1006.000000 
	C1134.113770,989.794922 1127.097412,974.373657 1119.746338,958.216919 
	C1112.459717,974.565796 1105.611816,989.930115 1098.449463,1006.000000 
	C1102.041138,1006.000000 1104.813354,1006.000000 1108.562134,1006.000000 
z"/>
<path fill="#0071CE" opacity="1.000000" stroke="none" 
	d="
M978.000000,1032.000000 
	C977.999939,1039.830933 977.896606,1047.163818 978.040283,1054.491821 
	C978.120361,1058.574219 976.344421,1060.139282 972.354004,1060.041260 
	C966.026611,1059.885864 959.690918,1059.912598 953.361938,1060.032715 
	C949.583496,1060.104370 947.968384,1058.506836 947.971741,1054.708862 
	C948.015015,1005.891724 948.015137,957.074585 947.971863,908.257446 
	C947.968445,904.433411 949.632263,902.887268 953.395691,902.966492 
	C959.390991,903.092651 965.390991,902.990662 971.388977,903.002625 
	C977.463074,903.014771 977.995422,903.528259 977.996460,909.540527 
	C978.003418,950.193665 978.000000,990.846863 978.000000,1032.000000 
z"/>
<path fill="#BBE5F8" opacity="1.000000" stroke="none" 
	d="
M1174.313721,613.817749 
	C1173.654785,609.135742 1173.050171,604.352173 1173.042847,599.567749 
	C1172.971558,552.769348 1172.967163,505.970673 1173.044189,459.172272 
	C1173.053223,453.720734 1173.669922,448.270172 1174.015625,442.385284 
	C1181.418213,449.772919 1188.780029,457.623199 1196.213135,465.405396 
	C1200.808838,470.216858 1205.631592,474.815918 1210.132080,479.712769 
	C1213.934204,483.849701 1217.780518,488.027557 1220.969849,492.629120 
	C1227.786011,502.463501 1226.200806,511.365784 1216.153687,517.786804 
	C1208.765869,522.508240 1200.746216,526.235168 1193.054199,530.488586 
	C1186.997803,533.837463 1185.990845,536.859436 1189.054199,543.000793 
	C1190.601807,546.103271 1192.540894,549.016785 1194.389526,551.961548 
	C1200.485840,561.673035 1198.978027,569.678528 1189.723755,576.614136 
	C1188.271484,577.702637 1186.953735,578.977539 1185.465942,580.010620 
	C1181.202515,582.971252 1181.294312,586.615601 1184.174805,590.245300 
	C1191.508911,599.487061 1187.041260,608.303650 1177.750366,612.122925 
	C1176.678345,612.563660 1175.678711,613.180603 1174.313721,613.817749 
z"/>
<path fill="#6DC0DC" opacity="1.000000" stroke="none" 
	d="
M927.524170,153.103180 
	C927.992798,184.680328 928.013000,216.200607 927.954285,247.720749 
	C927.951111,249.409653 927.284485,251.097305 926.547852,252.894226 
	C921.792603,233.368988 917.983215,213.583908 912.806885,194.163147 
	C910.110779,184.047562 905.365479,174.401459 900.811707,164.894989 
	C898.956543,161.022171 895.153992,158.082245 892.115112,154.412750 
	C893.477539,153.737076 894.959839,153.057251 896.447327,153.045853 
	C906.650696,152.967697 916.855164,153.029541 927.524170,153.103180 
z"/>
<path fill="#003FAE" opacity="1.000000" stroke="none" 
	d="
M857.034546,718.565247 
	C854.329468,707.540771 850.977661,696.241089 849.153625,684.699829 
	C845.611267,662.287170 842.424927,639.792114 840.030334,617.231506 
	C837.703186,595.306396 836.200806,573.275818 834.987183,551.255737 
	C833.844360,530.520874 833.485657,509.741058 832.905273,488.977570 
	C832.510315,474.851440 831.933533,460.713593 832.139893,446.591248 
	C832.474976,423.658936 832.995300,400.715088 834.163269,377.813141 
	C835.320374,355.124817 836.813782,332.423798 839.165344,309.833069 
	C842.854370,274.394836 847.116211,238.999695 856.705688,204.211288 
	C860.341064,222.182861 863.991821,240.353210 866.949280,258.635742 
	C869.351807,273.487427 871.092468,288.454285 872.799194,303.407440 
	C873.850891,312.621185 874.378906,321.899109 874.982056,331.158691 
	C876.339722,352.001465 877.598389,372.850708 878.893799,393.697540 
	C878.935059,394.362122 878.948242,395.029053 878.955261,395.695099 
	C879.290771,427.485046 879.938049,459.276001 879.843689,491.064697 
	C879.784119,511.154510 878.803528,531.249634 877.885315,551.326294 
	C877.203857,566.224792 876.358582,581.137695 874.871155,595.972473 
	C872.610291,618.522156 870.117859,641.063843 866.987305,663.506226 
	C864.566223,680.862427 861.022461,698.062317 857.952209,715.327087 
	C857.779358,716.299377 857.374878,717.230530 857.034546,718.565247 
z"/>
<path fill="#E41214" opacity="1.000000" stroke="none" 
	d="
M747.009766,267.426575 
	C747.994934,274.006470 749.305359,280.984833 749.894531,288.023560 
	C752.010620,313.301270 754.125061,338.583832 755.752808,363.895874 
	C756.669617,378.152527 756.807190,392.468292 756.988403,406.761353 
	C757.388977,438.366974 757.897583,469.976318 757.771118,501.581757 
	C757.691406,521.506470 756.805054,541.440186 755.799438,561.345581 
	C754.828796,580.558411 753.443665,599.756775 751.853760,618.929443 
	C750.759155,632.130432 749.004883,645.276611 747.280334,658.754028 
	C745.662048,643.557861 744.032654,628.072876 743.024780,612.547607 
	C741.724792,592.522400 740.925659,572.464783 739.903198,552.421509 
	C739.607605,546.627319 739.068115,540.836548 739.011902,535.040588 
	C738.629211,495.609680 738.074280,456.177307 738.142395,416.746368 
	C738.177673,396.333160 739.197083,375.914124 740.102051,355.512360 
	C740.814453,339.452759 741.837646,323.400330 743.086853,307.373108 
	C744.115356,294.178040 745.678223,281.024628 747.009766,267.426575 
z"/>
<path fill="#F13306" opacity="1.000000" stroke="none" 
	d="
M691.405884,648.657471 
	C689.469604,631.072144 687.774841,613.258179 686.197449,595.433838 
	C685.671082,589.485901 685.310181,583.515991 685.105835,577.548218 
	C684.332581,554.965637 683.431763,532.384094 682.998169,509.794128 
	C682.474609,482.519165 682.043640,455.234070 682.204346,427.957062 
	C682.326660,407.200958 683.161743,386.437195 684.184143,365.701721 
	C685.139343,346.328491 686.653748,326.979980 688.131165,307.636597 
	C688.862610,298.059784 690.064148,288.518829 691.077881,278.528564 
	C692.052490,283.395508 693.429749,288.660736 693.864990,294.002686 
	C694.833618,305.892456 695.448120,317.815277 695.992676,329.734436 
	C696.780334,346.972107 697.367737,364.218842 698.062195,381.460846 
	C698.349121,388.584717 698.864502,395.703491 698.978760,402.829376 
	C699.384155,428.102936 699.886414,453.378296 699.915161,478.653473 
	C699.937927,498.598389 699.470093,518.548157 698.936035,538.488098 
	C698.505249,554.570801 697.854797,570.653870 696.930542,586.715393 
	C695.817566,606.056702 694.330811,625.376770 692.932129,644.700684 
	C692.840637,645.965332 692.120789,647.184509 691.405884,648.657471 
z"/>
<path fill="#2E1C66" opacity="1.000000" stroke="none" 
	d="
M798.481567,704.338318 
	C794.482117,679.485535 789.489502,654.470886 787.201355,629.211182 
	C783.708740,590.654358 781.360535,551.955750 779.889526,513.265564 
	C778.638245,480.354523 778.606628,447.354614 779.339783,414.423065 
	C780.023987,383.691589 781.896851,352.958435 784.213440,322.299072 
	C786.767273,288.499481 790.645203,254.813034 797.792603,221.209930 
	C799.643250,231.645950 801.773865,242.393555 802.875793,253.245575 
	C805.426758,278.367706 807.819397,303.516083 809.623779,328.700562 
	C810.978088,347.604034 811.489624,366.575073 812.058655,385.525574 
	C812.618164,404.155090 813.009399,422.796021 813.059143,441.433044 
	C813.139465,471.542175 813.357727,501.663940 812.621216,531.758423 
	C811.958374,558.839844 810.805786,585.951233 808.564575,612.941040 
	C806.036987,643.379395 802.051331,673.696716 798.481567,704.338318 
z"/>
<path fill="#FFFFFF" opacity="1.000000" stroke="none" 
	d="
M1108.073853,1006.000000 
	C1104.813354,1006.000000 1102.041138,1006.000000 1098.449463,1006.000000 
	C1105.611816,989.930115 1112.459717,974.565796 1119.746338,958.216919 
	C1127.097412,974.373657 1134.113770,989.794922 1141.486694,1006.000000 
	C1130.033203,1006.000000 1119.297607,1006.000000 1108.073853,1006.000000 
z"/>
</svg>