<svg xmlns="http://www.w3.org/2000/svg" xml:space="preserve" id="Layer_1" x="0" y="0" version="1.1" viewBox="0 0 2697.4 243.6"><style>.st0{fill:#0071ce}</style><path d="M2015.6 127.5c0-21.5-9.2-40.3-40.1-40.3-15.9 0-28.5 4.5-35.4 8.4l5 17.2c6.3-4 16.3-7.2 25.8-7.2 15.7-.1 18.3 8.9 18.3 14.6v1.4c-34.3 0-55.9 11.8-55.9 36 0 14.7 11 28.6 30.2 28.6 11.8 0 21.7-4.7 27.6-12.2h.6s3.9 16.4 25.5 10.1c-1.1-6.8-1.5-14.1-1.5-22.8v-33.8zm-25.5 22.7c0 1.8-.2 3.6-.6 5.1-2 6.6-8.8 12.1-17.3 12.1-7.1 0-12.7-4-12.7-12.5 0-13 14.3-16.6 30.6-16.5v11.8zM1804.7 58c2.6 13.4 10.2 52.1 10.2 52.1 3.1 15.9 6.1 32.6 8.2 45.8h.4c2.1-14 5.5-27.3 9.1-43.8l12.7-54.1h28l11.8 55.5c3.1 15.5 5.6 27.4 7.5 41.7h.4c2.1-14.5 4.9-26.9 8-42.8l11.4-54.5h26.9L1905.9 184c-21.2 4.6-29.3-3.9-32.3-17.4-2.9-13.6-8.6-39.4-8.6-39.4-2.9-14.1-5.2-24.1-6.8-38.6h-.4c-2.3 14.4-4.7 24.4-8.2 38.6l-14 56.9c-21.7 4.3-29.2-2.1-33.3-19.5-3.6-14.9-26-106.6-26-106.6h28.4zm505.4 69.5c0-21.5-9.2-40.3-40.2-40.3-15.9 0-28.5 4.5-35.4 8.4l5 17.2c6.3-4 16.3-7.2 25.8-7.2 15.7-.1 18.3 8.9 18.3 14.6v1.4c-34.3 0-55.9 11.8-55.9 36 0 14.7 11 28.6 30.2 28.6 11.8 0 21.6-4.7 27.5-12.2h.6s3.9 16.4 25.5 10.1c-1.1-6.8-1.5-14.1-1.5-22.8v-33.8zm-25.6 22.7c0 1.8-.2 3.6-.6 5.1-2 6.6-8.8 12.1-17.3 12.1-7.1 0-12.7-4-12.7-12.5 0-13 14.3-16.6 30.6-16.5v11.8zm-183.8-60.9v12.9h.4c4.4-6.9 11.6-15 27.6-15 12.5 0 22 6.7 26.1 16.9h.4c3.5-5.1 7.5-9.1 12-11.8 5.3-3.3 11.2-5.1 18.7-5.1 16.9 0 31.8 11.7 31.8 41.1V184H2192v-51.9c0-14.9-5.1-23.5-15.6-23.5-7.7 0-13.3 5.2-15.4 11.5-.7 2.2-1.1 5.2-1.1 7.7V184h-25.7v-54c0-12.7-4.9-21.4-15.2-21.4-8.3 0-13.5 6.5-15.6 12.1-.9 2.4-1.2 5.1-1.2 7.8V184h-25.7V89.3h24.2zm226.4 0V184h26.4v-48.5c0-2.6.2-4.9.6-7 2-10.2 9.7-16.7 20.9-16.7 3.1 0 5.3.3 7.6.7V87.8c-2-.4-3.3-.6-5.8-.6-9.9 0-21.1 6.4-25.8 20h-.7V89.3h-23.2zm91.3-31.3v29.8h22.3v24.1h-22.3v35.6c0 11.5 2.9 17.1 11.6 17.1 4.1 0 7.1-.5 9.7-1.2l.3 20c-3.5 1.3-11 2.8-18.5 2.8-8.9 0-16.3-3.1-20.8-7.9-5.2-5.5-7.6-14.5-7.6-27.3V58h25.3zm-360.1 99.3V58h-25.6v126h25.6v-26.7zM757.7 62.5c0-2.4 2.1-4.8 4.5-4.8h13.6c2.4 0 4.3 2.1 4.3 4.5V89h24.4c2.6 0 4.5 1.9 4.5 4.5v10.8c0 2.4-1.9 4.5-4.5 4.5h-24.4v47.3c0 8.1 3.1 9.6 7.6 9.6 5 0 11.7-2.9 14.6-4.3 3.1-1.4 4.5 0 5.5 2.1l4.3 10.5c1.2 2.6.2 4.5-2.1 5.7-2.4 1.4-16.5 7.2-28 7.2-18.9 0-24.4-11.5-24.4-28.4v-96zM682 180c0 2.4 2.1 4.5 4.5 4.5H698c3.8 0 6.4-.5 6.4-4.5v-60.7c1-1.7 7.6-11.7 21.5-11.7 3.1 0 6.7 1 8.1 1.7 2.2 1 4.5.5 5.7-2.1l5.7-11.7c2.6-6.4-8.4-8.8-17.4-8.8-17.4 0-26.3 11.5-28 13.9l-2.6-8.1c-.5-1.9-2.4-3.3-4.1-3.3h-6.9c-2.4 0-4.5 2.1-4.5 4.5V180zm-65.2-10c9.6 0 18.6-7.2 21.5-11.9v-15.3c-1.4-1-8.1-3.8-16.7-3.8-11.5 0-19.3 6-19.3 15.8 0 8.5 5.7 15.2 14.5 15.2m2.9-45.9c10 0 18.9 2.9 18.9 2.9.2-15-2.6-21-14.8-21-11 0-21.7 2.9-26.8 4.3-2.9.7-4.5-1.2-5.2-3.8l-1.9-8.8c-.7-3.1 1-4.8 3.1-5.5 1.7-.7 15.3-5.5 33-5.5 30.6 0 33.4 18.6 33.4 42.5V180c0 2.4-2.2 4.5-4.5 4.5h-6.7c-2.2 0-3.1-1-4.1-3.3l-2.4-6.4c-5.3 5-14.6 12.2-29.4 12.2-17.9 0-30.8-12.2-30.8-32 0-17.5 13.8-30.9 38.2-30.9M411.1 180c0 2.4 2.2 4.5 4.5 4.5H429c2.4 0 4.5-2.1 4.5-4.5v-58.3c1.2-3.1 9.3-14.3 23.6-14.3 13.4 0 20.3 8.4 20.3 23.6v49c0 2.4 1.9 4.5 4.5 4.5h12.7c2.4 0 4.5-2.1 4.5-4.5v-49.4c0-4.8-.2-9.3-.7-11.5 1.7-1.4 10-11.7 24.6-11.7 12.9 0 19.8 8.6 19.8 23.6v49c0 2.4 1.9 4.5 4.5 4.5h13.4c2.6 0 4.5-2.1 4.5-4.5v-48c0-24.8-10.3-45.4-39.4-45.4-18.2 0-32 12.7-34.6 15.3-6.9-9.8-17-15.3-30.8-15.3-18.4 0-29.4 11.2-31.5 13.4l-2.6-8.1c-.7-1.7-1.9-2.9-4-2.9h-6.7c-2.4 0-4.5 2.1-4.5 4.5V180zm-83.9-7.9 5-9.3c1-1.9 3.6-2.6 6-1.2 0 0 10.5 6.2 22.2 6.2 7.2 0 11.7-2.9 11.7-8.1 0-6.4-5.3-9.6-18.4-15.5-14.8-6.4-27.2-15.5-27.2-31.3 0-11.9 9.8-26.3 32.7-26.3 13.4 0 23.4 4.3 28.2 7.4 2.1 1.4 3.3 4.5 1.9 6.9L385 109c-1.2 2.2-4.3 2.9-6.2 1.9 0 0-10.5-5-19.6-5-8.1 0-10.8 3.6-10.8 7.2 0 6.2 6 8.8 15.3 12.9 17.4 7.6 31.8 15 31.8 33 0 14.8-14.1 27.9-35.3 27.9-16 0-26.5-5.7-31.5-9.8-1.5-.9-2.5-3.1-1.5-5m-76.5 5c5 4.1 15.5 9.8 31.5 9.8 21.2 0 35.3-13.1 35.3-27.9 0-17.9-14.3-25.3-31.8-33-9.3-4.1-15.3-6.7-15.3-12.9 0-3.6 2.6-7.2 10.8-7.2 9.1 0 19.6 5 19.6 5 1.9 1 5 .2 6.2-1.9l4.3-8.1c1.4-2.4.2-5.5-1.9-6.9-4.8-3.1-14.8-7.4-28.2-7.4-22.9 0-32.7 14.3-32.7 26.3 0 15.8 12.4 24.8 27.2 31.3 13.1 6 18.4 9.1 18.4 15.5 0 5.3-4.5 8.1-11.7 8.1-11.7 0-22.2-6.2-22.2-6.2-2.4-1.4-5-.7-6 1.2l-5 9.3c-.9 1.9 0 4.1 1.5 5m-60.9-7.1c9.6 0 18.6-7.2 21.5-11.9v-15.3c-1.4-1-8.1-3.8-16.7-3.8-11.5 0-19.3 6-19.3 15.8 0 8.5 5.7 15.2 14.5 15.2m2.9-45.9c10 0 18.9 2.9 18.9 2.9.2-15-2.6-21-14.8-21-11 0-21.7 2.9-26.8 4.3-2.9.7-4.5-1.2-5.3-3.8l-1.9-8.8c-.7-3.1.9-4.8 3.1-5.5 1.7-.7 15.3-5.5 33-5.5 30.6 0 33.4 18.6 33.4 42.5V180c0 2.4-2.1 4.5-4.5 4.5h-6.7c-2.1 0-3.1-1-4.1-3.3l-2.4-6.4c-5.2 5-14.6 12.2-29.4 12.2-17.9 0-30.8-12.2-30.8-32 .1-17.5 14-30.9 38.3-30.9M137.7 61.3v119.5c0 2-1.6 3.7-3.7 3.7h-14c-2 0-3.7-1.6-3.7-3.7V92.2l-36.2 53.9c-1.2 1.9-4.2 1.9-5.4 0L38.8 92.5v88.3c0 2-1.6 3.7-3.7 3.7H21.4c-2 0-3.7-1.6-3.7-3.7V61.3c0-2 1.6-3.7 3.7-3.7h17.2c1.2 0 2.4.6 3.1 1.7l36.1 56 36.1-56c.7-1.1 1.8-1.7 3.1-1.7h17.2c1.9 0 3.5 1.7 3.5 3.7" class="st0"/><path fill="#ffc220" d="M2539.6 140.5c-2.6-4.5-7.1-6.9-10.4-5.6l-53 24.7c-5 2.9-5.7 11.1-1.5 18.4 4.2 7.3 11.7 10.8 16.7 7.9l47.9-33.5c2.7-2.4 2.9-7.4.3-11.9zm63 0c2.6-4.5 7.1-6.9 10.4-5.6l53 24.7c5 2.9 5.7 11.1 1.5 18.4-4.3 7.3-11.7 10.8-16.7 7.9l-47.9-33.5c-2.7-2.4-2.9-7.4-.3-11.9zm-31.5 18.2c-5.2 0-9.5 2.7-10.1 6.2l-5.1 58.2c0 5.8 6.7 10.5 15.2 10.5s15.2-4.7 15.2-10.5l-5.2-58.2c-.5-3.5-4.8-6.2-10-6.2zm31.5-54.6c2.6 4.5 7.1 6.9 10.4 5.6l53-24.7c5-2.9 5.7-11.1 1.5-18.4-4.3-7.3-11.7-10.8-16.7-7.9L2603 92.3c-2.8 2.2-3 7.3-.4 11.8zm-63 0c-2.6 4.5-7.1 6.9-10.4 5.6l-53-24.7c-5-2.9-5.7-11.1-1.5-18.4 4.2-7.3 11.7-10.8 16.7-7.9l47.9 33.6c2.7 2.2 2.9 7.3.3 11.8zm31.5-18.2c5.2 0 9.5-2.7 10.1-6.2l5.2-58.2c0-5.7-6.7-10.5-15.2-10.5s-15.2 4.7-15.2 10.5l5.1 58.2c.5 3.5 4.8 6.2 10 6.2z"/><g><path d="M880.7 220.9c0 2.2-2 4-4 4h-5.2c-2.2 0-4-1.8-4-4V101.5c0-2 1.3-3.2 3.2-3.2 4.5 0 7.4 3.1 8.3 7.6 5.2-4.1 14-8.6 25.2-8.6 22.7 0 38.7 19.6 38.7 43.3 0 24.3-16.4 43.5-39.2 43.5-13.8 0-23-6.8-23-6.8v43.6zm0-56.1s9.5 7.2 21 7.2c16 0 27.7-13.5 27.7-31.6 0-16.2-10.1-31.1-26.8-31.1-13.3 0-21.9 10.1-21.9 10.1v45.4zM1000.3 97.2c23 0 41.7 19.8 41.7 43.2 0 23.7-18.7 43.7-41.7 43.7s-41.7-20-41.7-43.7c0-23.5 18.7-43.2 41.7-43.2zm0 74.8c16.4 0 28.4-14.4 28.4-31.6 0-16.9-12-31.1-28.4-31.1s-28.6 14.2-28.6 31.1c0 17.2 12.3 31.6 28.6 31.6zM1110.6 119.5l-24.5 62.4c-.4 1.1-1.4 2.2-3.4 2.2h-1.1c-2 0-3.1-.9-3.6-2.2l-23-78.2c-.7-2.7 0-4.7 3.2-4.7h6.1c2 0 3.4.9 3.8 2.3l15.3 56.5h.4l23.4-58.6c.4-1.1 1.6-2 3.6-2h1.1c1.6 0 3.1.9 3.4 2l23.2 58.8h.4l15.3-56.6c.4-1.4 1.8-2.3 3.4-2.3h6.3c2.9 0 3.8 2 2.9 4.7l-22.7 78.2c-.4 1.3-1.8 2.2-3.4 2.2h-1.1c-1.8 0-3.1-1.1-3.6-2.2l-25-62.4h-.4zM1220.3 97.2c21.8 0 37.6 16 37.6 37.8 0 1.4-.2 3.6-.4 5-.2 2.2-2 3.6-3.8 3.6h-60.4c.4 13.8 12 28.4 27.2 28.4 11 0 17.8-3.8 22.5-6.8 2.9-2 4.1-2.7 6.3.5l2.2 3.1c1.6 2.5 2.3 3.4-.7 5.8-5 4-16 9.5-30.4 9.5-25.2 0-40.3-19.8-40.3-43.5-.1-23.5 15-43.4 40.2-43.4zm24.3 35.7c-.4-12.2-10.1-23.7-24.3-23.7-14 0-25.2 10.8-26.8 23.7h51.1zM1277.8 101.5c0-2 1.3-3.2 3.2-3.2 5.2 0 8.1 4 8.6 9.3 4.5-4.7 12.6-10.4 25.5-10.4 6.3 0 16.5.9 14.6 6.7l-2.3 6.5c-.9 2.7-2.9 2.9-4.9 2-2-.9-5-2.3-9-2.3-16 0-22.5 10.6-22.5 10.6v57.5c0 2.2-2 4-4 4h-5.4c-2.2 0-4-1.8-4-4v-76.7zM1377.8 97.2c21.8 0 37.6 16 37.6 37.8 0 1.4-.2 3.6-.4 5-.2 2.2-2 3.6-3.8 3.6h-60.4c.4 13.8 12 28.4 27.2 28.4 11 0 17.8-3.8 22.5-6.8 2.9-2 4.1-2.7 6.3.5l2.2 3.1c1.6 2.5 2.3 3.4-.7 5.8-5 4-16 9.5-30.4 9.5-25.2 0-40.3-19.8-40.3-43.5-.1-23.5 15.1-43.4 40.2-43.4zm24.3 35.7c-.4-12.2-10.1-23.7-24.3-23.7-14 0-25.2 10.8-26.8 23.7h51.1zM1469.6 97.2c13.7 0 23 5.2 23 5.2V60.1c0-2 1.8-4 4-4h5c2.2 0 4.1 2 4.1 4v119.4c0 2-1.3 3.2-3.2 3.2-5.2 0-8.1-4-8.8-9.4-5.8 5-15.3 10.6-26.3 10.6-21 0-37.2-20-37.2-43.7 0-24.2 14.4-43 39.4-43zm-.6 74.8c14.9 0 23.6-13.3 23.6-13.3v-44.8s-9.7-4.7-21.2-4.7c-17.8 0-27.7 14.7-27.7 31.3 0 16.2 10.2 31.5 25.3 31.5zM1573.3 60.1c0-2 1.6-4 3.8-4h5.4c2 0 4 2 4 4v42.3s9.2-5.2 23-5.2c24.8 0 39.2 18.9 39.2 43.2 0 23.7-16 43.7-37.2 43.7-12.8 0-21-5.6-26.2-10.6-.5 5.4-3.4 9.4-8.6 9.4-2 0-3.2-1.3-3.2-3.2V60.1zm13.2 98.2s8.6 13.7 23.6 13.7c15.1 0 25.2-15.3 25.2-31.5 0-16.5-9.5-31.3-27.7-31.3-11.5 0-21 5.2-21 5.2v43.9zM1674.2 219.8l15.6-37-30.8-79.3c-1.1-2.7 0-4.5 3.2-4.5h7.6c1.6 0 3.1.9 3.6 2.3l23.6 66h.4l28-66c.5-1.4 2-2.3 3.6-2.3h6.7c3.2 0 4.5 2 3.2 4.7l-52 118.7c-.5 1.3-2.2 2.5-3.6 2.5h-5.8c-3.1-.1-4.5-2.2-3.3-5.1z" class="st0"/></g></svg>